<svg width="30" height="30" viewBox="0 0 30 30" fill="none" xmlns="http://www.w3.org/2000/svg">
<rect width="30" height="30" fill="#DDD6FA"/>
<g clip-path="url(#clip0_257_611)">
<mask id="mask0_257_611" style="mask-type:luminance" maskUnits="userSpaceOnUse" x="5" y="5" width="20" height="20">
<path d="M25 5H5V25H25V5Z" fill="white"/>
</mask>
<g mask="url(#mask0_257_611)">
<path fill-rule="evenodd" clip-rule="evenodd" d="M18.9866 18.498C18.9866 18.2218 19.2105 17.998 19.4866 17.998H22.499C23.3275 17.998 23.999 18.6696 23.999 19.498V23.5036C23.999 24.332 23.3274 25.0036 22.499 25.0036H7.50488C6.67646 25.0036 6.00488 24.332 6.00488 23.5036V19.4995C6.00488 18.671 6.67646 17.9995 7.50488 17.9995H10.4943C10.7704 17.9995 10.9943 18.2233 10.9943 18.4995C10.9943 18.7756 10.7704 18.9995 10.4943 18.9995H7.50488C7.22874 18.9995 7.00488 19.2233 7.00488 19.4995V23.5036C7.00488 23.7797 7.22874 24.0036 7.50488 24.0036H22.499C22.7752 24.0036 22.999 23.7797 22.999 23.5036V19.498C22.999 19.2218 22.7752 18.998 22.499 18.998H19.4866C19.2105 18.998 18.9866 18.7741 18.9866 18.498Z" fill="#444444"/>
<path fill-rule="evenodd" clip-rule="evenodd" d="M15.0098 5.51074C15.0098 5.2346 15.2336 5.01074 15.5098 5.01074H18.501C18.7771 5.01074 19.001 5.2346 19.001 5.51074V8.51285C19.001 8.789 18.7771 9.01285 18.501 9.01285H15.5098C15.2336 9.01285 15.0098 8.789 15.0098 8.51285V5.51074ZM16.0098 6.01075V8.01285H18.001V6.01075H16.0098Z" fill="#444444"/>
<path fill-rule="evenodd" clip-rule="evenodd" d="M16.0034 11.4961C16.0034 11.22 16.2273 10.9961 16.5034 10.9961H20.502C20.7781 10.9961 21.002 11.22 21.002 11.4961V15.5074C21.002 15.7836 20.7781 16.0074 20.502 16.0074H16.5034C16.2273 16.0074 16.0034 15.7836 16.0034 15.5074V11.4961ZM17.0034 11.9961V15.0074H20.002V11.9961H17.0034Z" fill="#444444"/>
<path fill-rule="evenodd" clip-rule="evenodd" d="M7.99707 10.5049C7.99707 10.2287 8.22093 10.0049 8.49707 10.0049H12.5029C12.7791 10.0049 13.0029 10.2287 13.0029 10.5049V14.5026C13.0029 14.7787 12.7791 15.0026 12.5029 15.0026H8.49707C8.22093 15.0026 7.99707 14.7787 7.99707 14.5026V10.5049ZM8.99707 11.0049V14.0026H12.0029V11.0049H8.99707Z" fill="#444444"/>
<path fill-rule="evenodd" clip-rule="evenodd" d="M13.002 17.4961C13.002 17.22 13.2258 16.9961 13.502 16.9961H17.4995C17.7757 16.9961 17.9995 17.22 17.9995 17.4961V21.5009C17.9995 21.777 17.7757 22.0009 17.4995 22.0009H13.502C13.2258 22.0009 13.002 21.777 13.002 21.5009V17.4961ZM14.002 17.9961V21.0009H16.9995V17.9961H14.002Z" fill="#444444"/>
<path fill-rule="evenodd" clip-rule="evenodd" d="M10.5242 22L8.48105 22.0004C8.20491 22.0004 7.98101 21.7766 7.98096 21.5005C7.9809 21.2243 8.20472 21.0004 8.48086 21.0004L10.5241 21C10.8002 20.9999 11.0241 21.2237 11.0241 21.4999C11.0242 21.776 10.8004 21.9999 10.5242 22Z" fill="#444444"/>
</g>
</g>
<defs>
<clipPath id="clip0_257_611">
<rect width="20" height="20" fill="white" transform="translate(5 5)"/>
</clipPath>
</defs>
</svg>
