<svg width="30" height="30" viewBox="0 0 30 30" fill="none" xmlns="http://www.w3.org/2000/svg">
<rect width="30" height="30" fill="#DEDCDE"/>
<path d="M15.465 7.48493C15.1618 7.38231 14.8332 7.38231 14.53 7.48493L8.88329 9.39743C8.69938 9.45717 8.53694 9.56939 8.41597 9.72027C8.295 9.87114 8.22079 10.0541 8.20246 10.2466C7.92163 13.7682 8.40913 16.3724 9.56663 18.3399C10.6866 20.2441 12.4783 21.6282 14.9975 22.6599C17.5192 21.6282 19.3125 20.2441 20.4325 18.3399C21.5908 16.3732 22.0783 13.7682 21.7975 10.2466C21.7792 10.0541 21.7049 9.87114 21.5839 9.72027C21.463 9.56939 21.3006 9.45717 21.1167 9.39743L15.465 7.48493ZM14.1292 6.3016C14.6923 6.11069 15.3025 6.1104 15.8658 6.30076L21.5175 8.21327C21.9326 8.35152 22.2982 8.60825 22.5692 8.95179C22.8402 9.29533 23.0047 9.71067 23.0425 10.1466C23.3367 13.8216 22.8425 16.7099 21.51 18.9741C20.1733 21.2449 18.0425 22.8057 15.2267 23.9149C15.0793 23.973 14.9156 23.973 14.7683 23.9149C11.955 22.8057 9.82496 21.2449 8.48913 18.9741C7.15746 16.7099 6.66329 13.8207 6.95663 10.1466C6.99439 9.71067 7.15892 9.29533 7.4299 8.95179C7.70089 8.60825 8.06649 8.35152 8.48163 8.21327L14.1292 6.3016Z" fill="black"/>
<path opacity="0.5" d="M15 21.6669C19.1933 19.9669 21.1717 16.9853 20.7858 11.3611C20.7425 10.7219 20.3058 10.1811 19.7 9.97022L15.6833 8.57189C15.4636 8.4954 15.2327 8.45624 15 8.45605V21.6669Z" fill="black"/>
</svg>
