<svg width="30" height="30" viewBox="0 0 30 30" fill="none" xmlns="http://www.w3.org/2000/svg">
<rect width="30" height="30" fill="#F8CDD8"/>
<g clip-path="url(#clip0_257_610)">
<mask id="mask0_257_610" style="mask-type:luminance" maskUnits="userSpaceOnUse" x="6" y="5" width="20" height="20">
<path d="M26 5H6V25H26V5Z" fill="white"/>
</mask>
<g mask="url(#mask0_257_610)">
<path d="M18.5049 8.00781C18.781 8.00781 19.0049 7.78395 19.0049 7.50781C19.0049 7.23167 18.781 7.00781 18.5049 7.00781C18.2287 7.00781 18.0049 7.23167 18.0049 7.50781C18.0049 7.78395 18.2287 8.00781 18.5049 8.00781Z" fill="#444444"/>
<path d="M22.5015 8.00781C22.7776 8.00781 23.0015 7.78395 23.0015 7.50781C23.0015 7.23167 22.7776 7.00781 22.5015 7.00781C22.2253 7.00781 22.0015 7.23167 22.0015 7.50781C22.0015 7.78395 22.2253 8.00781 22.5015 8.00781Z" fill="#444444"/>
<path d="M22.4937 11.999C22.7698 11.999 22.9937 11.7752 22.9937 11.499C22.9937 11.2229 22.7698 10.999 22.4937 10.999C22.2175 10.999 21.9937 11.2229 21.9937 11.499C21.9937 11.7752 22.2175 11.999 22.4937 11.999Z" fill="#444444"/>
<path d="M18.5029 11.999C18.7791 11.999 19.0029 11.7752 19.0029 11.499C19.0029 11.2229 18.7791 10.999 18.5029 10.999C18.2268 10.999 18.0029 11.2229 18.0029 11.499C18.0029 11.7752 18.2268 11.999 18.5029 11.999Z" fill="#444444"/>
<path d="M6.49756 6.50098C6.49756 5.94869 6.94527 5.50098 7.49756 5.50098H13.4976C14.0498 5.50098 14.4976 5.94869 14.4976 6.50098V12.501C14.4976 13.0533 14.0498 13.501 13.4976 13.501H7.49756C6.94527 13.501 6.49756 13.0533 6.49756 12.501V6.50098Z" stroke="#444444" stroke-linejoin="round"/>
<path d="M9.49756 8.5H11.4976V10.5H9.49756V8.5Z" fill="#444444" stroke="#444444" stroke-linejoin="round"/>
<path d="M16.5063 6.50195C16.5063 5.94967 16.9541 5.50195 17.5063 5.50195H23.5058C24.058 5.50195 24.5058 5.94967 24.5058 6.50195V12.5C24.5058 13.0523 24.058 13.5 23.5058 13.5H17.5063C16.9541 13.5 16.5063 13.0523 16.5063 12.5V6.50195Z" stroke="#444444" stroke-linejoin="round"/>
<path d="M8.51221 18.4961V20.5054M10.5078 18.4961V20.5054M12.5039 18.4961V20.5054" stroke="#444444" stroke-linecap="round"/>
<path d="M18.0029 20.129C18.0029 20.6104 18.3932 21.0006 18.8745 21.0006L22.155 20.9947C22.6203 20.9947 22.9975 20.6175 22.9975 20.1522C22.9975 19.6869 22.6203 19.3097 22.155 19.3097C22.1261 19.3097 22.0975 19.3112 22.0694 19.314C22.0708 19.2953 22.0715 19.2765 22.0715 19.2575C22.0715 18.8383 21.7317 18.4986 21.3126 18.4986C21.154 18.4986 21.0067 18.5473 20.8849 18.6305C20.7184 18.2545 20.342 17.9922 19.9044 17.9922C19.3124 17.9922 18.8326 18.4721 18.8326 19.064C18.8326 19.1302 18.8385 19.195 18.85 19.2578C18.38 19.2708 18.0029 19.6559 18.0029 20.129Z" fill="#444444"/>
<path d="M10.4976 22.4961C9.94527 22.4961 9.49756 22.9438 9.49756 23.4961H11.4976C11.4976 22.9438 11.0498 22.4961 10.4976 22.4961Z" fill="#444444"/>
<path fill-rule="evenodd" clip-rule="evenodd" d="M5.99561 16.5029C5.99561 15.6745 6.66718 15.0029 7.49561 15.0029H13.4956C14.324 15.0029 14.9956 15.6745 14.9956 16.5029V18.6183C14.7035 18.7929 14.5078 19.1123 14.5078 19.4774C14.5078 19.8425 14.7035 20.1618 14.9956 20.3364V22.5C14.9956 23.3284 14.324 24 13.4956 24H7.49561C6.66718 24 5.99561 23.3284 5.99561 22.5V20.3847C6.30712 20.2153 6.51855 19.8851 6.51855 19.5056C6.51855 19.126 6.30712 18.7959 5.99561 18.6265V16.5029ZM7.49561 16.0029C7.21946 16.0029 6.9956 16.2267 6.9956 16.5029V22.5C6.9956 22.7761 7.21946 23 7.49561 23H13.4956C13.7718 23 13.9956 22.7761 13.9956 22.5V16.5029C13.9956 16.2267 13.7718 16.0029 13.4956 16.0029H7.49561Z" fill="#444444"/>
<path d="M20.5002 23.502C22.7094 23.502 24.5002 21.7111 24.5002 19.502C24.5002 17.2928 22.7094 15.502 20.5002 15.502C18.2911 15.502 16.5002 17.2928 16.5002 19.502C16.5002 21.7111 18.2911 23.502 20.5002 23.502Z" stroke="#444444" stroke-linejoin="round"/>
</g>
</g>
<defs>
<clipPath id="clip0_257_610">
<rect width="20" height="20" fill="white" transform="translate(6 5)"/>
</clipPath>
</defs>
</svg>
