<svg width="30" height="30" viewBox="0 0 30 30" fill="none" xmlns="http://www.w3.org/2000/svg">
<rect width="30" height="30" fill="#BDDDF9"/>
<g clip-path="url(#clip0_257_609)">
<mask id="mask0_257_609" style="mask-type:luminance" maskUnits="userSpaceOnUse" x="6" y="5" width="20" height="20">
<path d="M26 5H6V25H26V5Z" fill="white"/>
</mask>
<g mask="url(#mask0_257_609)">
<path d="M7.51221 7.11379C7.51221 7.11379 10.3377 8.74918 14.0402 8.74918C17.8857 8.74918 20.5122 7.11379 20.5122 7.11379M7.51221 7.11379C9.9609 5.01625 18.2483 4.90857 20.5122 7.11379M7.51221 7.11379V12.5351M20.5122 7.11379V12.5351C15.9793 14.5162 9.35872 13.4336 7.51221 12.5351M7.51221 12.5351V22.2915C8.74305 23.4636 11.8458 23.916 13.8256 23.916C14.6757 23.916 15.9014 23.8303 17.1123 23.6038M7.51221 17.4606C8.71579 18.0462 11.6872 18.6915 15.0356 18.5334" stroke="#444444" stroke-linejoin="round"/>
<path d="M25.5003 18.2271V19.8175C25.5003 19.8748 25.4812 19.9298 25.443 19.9823C25.4048 20.0348 25.357 20.0659 25.2997 20.0754L24.3206 20.2236C24.1075 20.2559 23.923 20.4299 23.8383 20.628C23.7516 20.8308 23.7742 21.0424 23.9075 21.2181C24.0556 21.4134 24.2403 21.6462 24.4615 21.9166C24.5093 21.9739 24.5331 22.0336 24.5331 22.0957C24.5331 22.1578 24.5116 22.2127 24.4687 22.2605C24.3397 22.4372 24.1033 22.6951 23.7594 23.0342C23.4155 23.3733 23.191 23.5429 23.086 23.5429C23.0287 23.5429 22.9666 23.5214 22.8997 23.4784L22.1897 22.9228C22.0201 22.79 21.7891 22.7722 21.5903 22.8552C21.3916 22.9381 21.2435 23.1144 21.2159 23.3279C21.1564 23.7892 21.1015 24.1164 21.0513 24.3095C21.0179 24.4432 20.9319 24.5101 20.7934 24.5101H19.203C19.1361 24.5101 19.0776 24.4898 19.0275 24.4492C18.9773 24.4086 18.9498 24.3572 18.9451 24.2951L18.7964 23.3184C18.7646 23.109 18.607 22.9351 18.411 22.8547C18.2117 22.7729 17.9905 22.7947 17.8189 22.9249L17.0895 23.4784C17.0418 23.5214 16.9821 23.5429 16.9104 23.5429C16.8436 23.5429 16.7839 23.5166 16.7313 23.4641C16.1295 22.9196 15.7355 22.5184 15.5492 22.2605C15.5158 22.2127 15.4991 22.1578 15.4991 22.0957C15.4991 22.0384 15.5182 21.9835 15.5564 21.931C15.628 21.8307 15.7498 21.6718 15.9218 21.4545C15.9796 21.3815 16.0325 21.314 16.0806 21.252C16.2226 21.0689 16.2297 20.8123 16.1407 20.5983C16.0494 20.3789 15.8639 20.2179 15.6288 20.1832L14.7039 20.0468C14.6418 20.0372 14.5916 20.0074 14.5534 19.9572C14.5152 19.9071 14.4961 19.8509 14.4961 19.7889V18.1984C14.4961 18.1411 14.5152 18.0862 14.5534 18.0336C14.5916 17.9811 14.637 17.95 14.6895 17.9405L15.6643 17.7937C15.8829 17.7608 16.0569 17.6108 16.1433 17.4074C16.2285 17.207 16.2231 16.9676 16.0922 16.7937C15.9355 16.5857 15.7497 16.3518 15.5349 16.0921C15.4871 16.0348 15.4633 15.9775 15.4633 15.9202C15.4633 15.8724 15.4848 15.8175 15.5277 15.7554C15.6519 15.5835 15.8871 15.3268 16.2334 14.9853C16.5797 14.6438 16.8054 14.473 16.9104 14.473C16.9725 14.473 17.0346 14.4969 17.0967 14.5447L17.8064 15.0949C17.9764 15.2267 18.2069 15.244 18.4053 15.161C18.6044 15.0779 18.7529 14.9012 18.7806 14.6872C18.8401 14.2263 18.8949 13.8994 18.9451 13.7065C18.9785 13.5727 19.0645 13.5059 19.203 13.5059H20.7934C20.8603 13.5059 20.9188 13.5262 20.969 13.5668C21.0191 13.6073 21.0466 13.6587 21.0513 13.7208L21.1999 14.6969C21.2318 14.9067 21.3897 15.0809 21.586 15.1615C21.7851 15.2432 22.0058 15.2218 22.1777 15.0923L22.914 14.5375C22.957 14.4945 23.0143 14.473 23.086 14.473C23.1481 14.473 23.2078 14.4969 23.2651 14.5447C23.8812 15.113 24.2752 15.519 24.4472 15.7626C24.4806 15.8008 24.4973 15.8533 24.4973 15.9202C24.4973 15.9775 24.4782 16.0324 24.44 16.085C24.3684 16.1853 24.2466 16.3441 24.0746 16.5614C24.0167 16.6346 23.9637 16.7023 23.9155 16.7644C23.7733 16.9477 23.7636 17.2046 23.8533 17.4186C23.9441 17.6352 24.1287 17.7911 24.3608 17.8266L25.2925 17.9691C25.3546 17.9787 25.4048 18.0086 25.443 18.0587C25.4812 18.1088 25.5003 18.165 25.5003 18.2271Z" stroke="#444444"/>
<path d="M20 20.25C20.6904 20.25 21.25 19.6904 21.25 19C21.25 18.3096 20.6904 17.75 20 17.75C19.3096 17.75 18.75 18.3096 18.75 19C18.75 19.6904 19.3096 20.25 20 20.25Z" fill="#444444" stroke="#444444"/>
</g>
</g>
<defs>
<clipPath id="clip0_257_609">
<rect width="20" height="20" fill="white" transform="translate(6 5)"/>
</clipPath>
</defs>
</svg>
