<svg width="330" height="330" viewBox="0 0 330 330" fill="none" xmlns="http://www.w3.org/2000/svg">
<path d="M223.932 275C267.327 275 302.5 240.24 302.5 197.354C302.5 163.364 280.404 134.475 249.631 123.956C245.259 85.1675 211.956 55 171.545 55C128.15 55 92.9775 89.76 92.9775 132.646C92.9775 142.134 94.6963 151.209 97.845 159.624C94.0842 158.897 90.2629 158.528 86.4325 158.524C53.8862 158.538 27.5 184.608 27.5 216.769C27.5 248.93 53.8862 275 86.4325 275H223.932Z" fill="#9184EB"/>
<path d="M127.5 180C138.125 184.725 151.062 187.5 165 187.5C178.938 187.5 191.875 184.725 202.5 180M133.75 146.25V142.5M196.25 146.25V142.5" stroke="white" stroke-width="1.5" stroke-linecap="round" stroke-linejoin="round"/>
</svg>
