<svg width="30" height="30" viewBox="0 0 30 30" fill="none" xmlns="http://www.w3.org/2000/svg">
<rect width="30" height="30" fill="#FBE19D"/>
<g clip-path="url(#clip0_257_612)">
<mask id="mask0_257_612" style="mask-type:luminance" maskUnits="userSpaceOnUse" x="5" y="5" width="20" height="20">
<path d="M25 5H5V25H25V5Z" fill="white"/>
</mask>
<g mask="url(#mask0_257_612)">
<path fill-rule="evenodd" clip-rule="evenodd" d="M19.0004 18.498C19.0004 18.2218 19.2243 17.998 19.5004 17.998H22.5171C23.3455 17.998 24.0171 18.6696 24.0171 19.498V23.5036C24.0171 24.332 23.3455 25.0036 22.5171 25.0036H7.50488C6.67646 25.0036 6.00488 24.332 6.00488 23.5036V19.4995C6.00488 18.671 6.67646 17.9995 7.50488 17.9995H10.4985C10.7746 17.9995 10.9985 18.2233 10.9985 18.4995C10.9985 18.7756 10.7746 18.9995 10.4985 18.9995H7.50488C7.22874 18.9995 7.00488 19.2233 7.00488 19.4995V23.5036C7.00488 23.7797 7.22874 24.0036 7.50488 24.0036H22.5171C22.7932 24.0036 23.0171 23.7797 23.0171 23.5036V19.498C23.0171 19.2218 22.7932 18.998 22.5171 18.998H19.5004C19.2243 18.998 19.0004 18.7741 19.0004 18.498Z" fill="#444444"/>
<path fill-rule="evenodd" clip-rule="evenodd" d="M14.0166 5.49707C14.0166 5.22093 14.2405 4.99707 14.5166 4.99707H17.5273C17.8035 4.99707 18.0273 5.22093 18.0273 5.49707V8.50421C18.0273 8.78036 17.8035 9.00421 17.5273 9.00421H14.5166C14.2405 9.00421 14.0166 8.78036 14.0166 8.50421V5.49707ZM15.0166 5.99707V8.00421H17.0273V5.99707H15.0166Z" fill="#444444"/>
<path fill-rule="evenodd" clip-rule="evenodd" d="M13.0273 17.5039C13.0273 17.2278 13.2512 17.0039 13.5273 17.0039H17.5186C17.7947 17.0039 18.0186 17.2278 18.0186 17.5039V21.5012C18.0186 21.7774 17.7947 22.0012 17.5186 22.0012H13.5273C13.2512 22.0012 13.0273 21.7774 13.0273 21.5012V17.5039ZM14.0273 18.0039V21.0012H17.0186V18.0039H14.0273Z" fill="#444444"/>
<path fill-rule="evenodd" clip-rule="evenodd" d="M10.5304 22.001L8.51621 22.0014C8.24007 22.0015 8.01617 21.7777 8.01611 21.5015C8.01606 21.2254 8.23987 21.0015 8.51602 21.0014L10.5302 21.001C10.8063 21.001 11.0302 21.2248 11.0303 21.5009C11.0303 21.7771 10.8065 22.001 10.5304 22.001Z" fill="#444444"/>
<path fill-rule="evenodd" clip-rule="evenodd" d="M20.0243 11.0293C18.9215 11.0293 18.0276 11.9233 18.0276 13.0261C18.0276 14.1288 18.9215 15.0228 20.0243 15.0228C21.1271 15.0228 22.0211 14.1288 22.0211 13.0261C22.0211 11.9233 21.1271 11.0293 20.0243 11.0293ZM17.0276 13.0261C17.0276 11.371 18.3693 10.0293 20.0243 10.0293C21.6794 10.0293 23.0211 11.371 23.0211 13.0261C23.0211 14.6811 21.6794 16.0228 20.0243 16.0228C18.3693 16.0228 17.0276 14.6811 17.0276 13.0261Z" fill="#444444"/>
<path fill-rule="evenodd" clip-rule="evenodd" d="M10.1915 9.16696C10.3868 8.97169 10.7034 8.97169 10.8987 9.16696L13.8987 12.167C14.0939 12.3622 14.0939 12.6788 13.8987 12.8741L10.8965 15.8762C10.7013 16.0714 10.3847 16.0714 10.1894 15.8762L7.18941 12.8762C6.99415 12.6809 6.99415 12.3644 7.18941 12.1691L10.1915 9.16696ZM8.25007 12.5226L10.543 14.8156L12.838 12.5205L10.5451 10.2276L8.25007 12.5226Z" fill="#444444"/>
</g>
</g>
<defs>
<clipPath id="clip0_257_612">
<rect width="20" height="20" fill="white" transform="translate(5 5)"/>
</clipPath>
</defs>
</svg>
