<svg width="463" height="454" viewBox="0 0 463 454" fill="none" xmlns="http://www.w3.org/2000/svg">
<g opacity="0.07">
<path d="M314.184 378.333C375.068 378.333 424.416 330.512 424.416 271.511C424.416 224.749 393.415 185.005 350.24 170.534C344.105 117.17 297.381 75.6665 240.682 75.6665C179.798 75.6665 130.45 123.488 130.45 182.489C130.45 195.541 132.861 208.026 137.279 219.603C132.003 218.603 126.641 218.096 121.267 218.09C75.6037 218.109 38.583 253.975 38.583 298.221C38.583 342.467 75.6037 378.333 121.267 378.333H314.184Z" fill="#7868E6"/>
<path d="M178.887 247.636C193.794 254.137 211.946 257.955 231.5 257.955C251.055 257.955 269.207 254.137 284.114 247.636M187.656 201.205V196.045M275.345 201.205V196.045" stroke="white" stroke-width="1.5" stroke-linecap="round" stroke-linejoin="round"/>
</g>
</svg>
