<svg width="60" height="60" viewBox="0 0 60 60" fill="none" xmlns="http://www.w3.org/2000/svg">
<path d="M40.715 50C48.605 50 55 43.68 55 35.8825C55 29.7025 50.9825 24.45 45.3875 22.5375C44.5925 15.485 38.5375 10 31.19 10C23.3 10 16.905 16.32 16.905 24.1175C16.905 25.8425 17.2175 27.4925 17.79 29.0225C17.1062 28.8903 16.4114 28.8233 15.715 28.8225C9.7975 28.825 5 33.565 5 39.4125C5 45.26 9.7975 50 15.715 50H40.715Z" fill="#7868E6"/>
<path d="M23.1816 32.7272C25.1135 33.5863 27.4657 34.0909 29.9998 34.0909C32.5339 34.0909 34.8862 33.5863 36.818 32.7272M24.318 26.5909V25.9091M35.6816 26.5909V25.9091" stroke="white" stroke-width="1.5" stroke-linecap="round" stroke-linejoin="round"/>
</svg>
