<svg width="20" height="20" viewBox="0 0 20 20" fill="none" xmlns="http://www.w3.org/2000/svg">
<g clip-path="url(#clip0_4636_17995)">
<path d="M1.51221 2.11367C1.51221 2.11367 4.33766 3.74906 8.04022 3.74906C11.8857 3.74906 14.5122 2.11367 14.5122 2.11367M1.51221 2.11367C3.9609 0.0161256 12.2483 -0.0915552 14.5122 2.11367M1.51221 2.11367V7.53496M14.5122 2.11367V7.53496C9.97926 9.51605 3.35872 8.43351 1.51221 7.53496M1.51221 7.53496V17.2914C2.74305 18.4635 5.84577 18.9159 7.82557 18.9159C8.67575 18.9159 9.90136 18.8302 11.1123 18.6037M1.51221 12.4605C2.71579 13.0461 5.68723 13.6914 9.0356 13.5333" stroke="#656C87" stroke-linejoin="round"/>
<path d="M19.5003 13.2268V14.8172C19.5003 14.8745 19.4812 14.9295 19.443 14.982C19.4048 15.0345 19.357 15.0656 19.2997 15.0751L18.3206 15.2233C18.1075 15.2556 17.923 15.4296 17.8383 15.6277V15.6277C17.7516 15.8305 17.7742 16.0421 17.9075 16.2178C18.0556 16.4131 18.2403 16.6459 18.4615 16.9163C18.5093 16.9736 18.5331 17.0333 18.5331 17.0954C18.5331 17.1575 18.5116 17.2124 18.4687 17.2602C18.3397 17.4369 18.1033 17.6948 17.7594 18.0339C17.4155 18.373 17.191 18.5426 17.086 18.5426C17.0287 18.5426 16.9666 18.5211 16.8997 18.4781L16.1897 17.9225C16.0201 17.7897 15.7891 17.7719 15.5903 17.8549V17.8549C15.3916 17.9378 15.2435 18.1141 15.2159 18.3276C15.1564 18.7889 15.1015 19.1161 15.0513 19.3092C15.0179 19.4429 14.9319 19.5098 14.7934 19.5098H13.203C13.1361 19.5098 13.0776 19.4895 13.0275 19.4489C12.9773 19.4083 12.9498 19.3569 12.9451 19.2948L12.7964 18.3181C12.7646 18.1087 12.607 17.9348 12.411 17.8544V17.8544C12.2117 17.7726 11.9905 17.7944 11.8189 17.9246L11.0895 18.4781C11.0418 18.5211 10.9821 18.5426 10.9104 18.5426C10.8436 18.5426 10.7839 18.5163 10.7313 18.4638C10.1295 17.9193 9.7355 17.5181 9.54923 17.2602C9.5158 17.2124 9.49908 17.1575 9.49908 17.0954C9.49908 17.0381 9.51819 16.9832 9.5564 16.9307C9.62804 16.8304 9.74983 16.6715 9.92177 16.4542C9.97957 16.3812 10.0325 16.3137 10.0806 16.2517C10.2226 16.0686 10.2297 15.812 10.1407 15.598V15.598C10.0494 15.3786 9.86386 15.2176 9.62879 15.1829L8.70386 15.0465C8.64177 15.0369 8.59162 15.0071 8.55341 14.9569C8.5152 14.9068 8.49609 14.8506 8.49609 14.7886V13.1981C8.49609 13.1408 8.5152 13.0859 8.55341 13.0333C8.59162 12.9808 8.63699 12.9497 8.68953 12.9402L9.66431 12.7934C9.88287 12.7605 10.0569 12.6105 10.1433 12.4071V12.4071C10.2285 12.2067 10.2231 11.9673 10.0922 11.7934C9.93548 11.5854 9.74972 11.3515 9.5349 11.0918C9.48714 11.0345 9.46326 10.9772 9.46326 10.9199C9.46326 10.8721 9.48475 10.8172 9.52774 10.7551C9.65192 10.5832 9.88714 10.3265 10.2334 9.98496C10.5797 9.64346 10.8054 9.47272 10.9104 9.47272C10.9725 9.47272 11.0346 9.4966 11.0967 9.54436L11.8064 10.0946C11.9764 10.2264 12.2069 10.2437 12.4053 10.1607V10.1607C12.6044 10.0776 12.7529 9.9009 12.7806 9.68688C12.8401 9.22596 12.8949 8.89905 12.9451 8.70615C12.9785 8.57242 13.0645 8.50555 13.203 8.50555H14.7934C14.8603 8.50555 14.9188 8.52585 14.969 8.56645C15.0191 8.60704 15.0466 8.65839 15.0513 8.72048L15.1999 9.6966C15.2318 9.90636 15.3897 10.0806 15.586 10.1612V10.1612C15.7851 10.2429 16.0058 10.2215 16.1777 10.092L16.914 9.5372C16.957 9.49421 17.0143 9.47272 17.086 9.47272C17.1481 9.47272 17.2078 9.4966 17.2651 9.54436C17.8812 10.1127 18.2752 10.5187 18.4472 10.7623C18.4806 10.8005 18.4973 10.853 18.4973 10.9199C18.4973 10.9772 18.4782 11.0321 18.44 11.0847C18.3684 11.185 18.2466 11.3438 18.0746 11.5611C18.0167 11.6343 17.9637 11.702 17.9155 11.7641C17.7733 11.9474 17.7636 12.2043 17.8533 12.4183V12.4183C17.9441 12.6349 18.1287 12.7908 18.3608 12.8263L19.2925 12.9688C19.3546 12.9784 19.4048 13.0083 19.443 13.0584C19.4812 13.1085 19.5003 13.1647 19.5003 13.2268Z" stroke="#656C87"/>
<circle cx="14" cy="14" r="1.25" fill="#656C87" stroke="#656C87"/>
</g>
<defs>
<clipPath id="clip0_4636_17995">
<rect width="20" height="20" fill="white"/>
</clipPath>
</defs>
</svg>
