<svg width="16" height="16" viewBox="0 0 16 16" fill="none" xmlns="http://www.w3.org/2000/svg">
<path d="M8.00005 0.5C4.72505 0.5 1.95005 2.575 0.925049 5.5H15.075C14.05 2.575 11.275 0.5 8.00005 0.5Z" fill="#ED4C5C"/>
<path d="M8.00005 15.5C11.275 15.5 14.05 13.425 15.075 10.5H0.925049C1.95005 13.425 4.72505 15.5 8.00005 15.5Z" fill="#428BC1"/>
<path d="M0.925 5.5C0.65 6.275 0.5 7.125 0.5 8C0.5 8.875 0.65 9.725 0.925 10.5H15.075C15.35 9.725 15.5 8.875 15.5 8C15.5 7.125 15.35 6.275 15.075 5.5H0.925Z" fill="white"/>
</svg>
