<svg width="16" height="16" viewBox="0 0 16 16" fill="none" xmlns="http://www.w3.org/2000/svg">
<path d="M15.375 6.7C14.775 3.175 11.7 0.5 8 0.5C4.3 0.5 1.225 3.175 0.625 6.7L8 3L15.375 6.7ZM0.625 9.3C1.225 12.825 4.3 15.5 8 15.5C11.7 15.5 14.775 12.825 15.375 9.3L8 13L0.625 9.3Z" fill="#699635"/>
<path d="M8 3L0.625 6.7C0.55 7.125 0.5 7.55 0.5 8C0.5 8.45 0.55 8.875 0.625 9.3L8 13L15.375 9.3C15.45 8.875 15.5 8.45 15.5 8C15.5 7.55 15.45 7.125 15.375 6.7L8 3Z" fill="#FFE62E"/>
<path d="M6.5 7.09961C5.7 7.09961 4.95 7.27461 4.275 7.57461C4.25 7.72461 4.25 7.84961 4.25 7.99961C4.25 10.0746 5.925 11.7496 8 11.7496C9.4 11.7496 10.625 10.9746 11.275 9.84961C10.35 8.22461 8.55 7.09961 6.5 7.09961Z" fill="#428BC1"/>
<path d="M11.7 8.6C11.725 8.4 11.75 8.2 11.75 8C11.75 5.925 10.075 4.25 8 4.25C6.525 4.25 5.25 5.1 4.625 6.35C5.225 6.175 5.85 6.075 6.5 6.075C8.625 6.075 10.5 7.075 11.7 8.6Z" fill="#428BC1"/>
<path d="M6.4999 6.0752C5.8499 6.0752 5.2249 6.1752 4.6249 6.3502C4.4499 6.7252 4.3249 7.1252 4.2749 7.5752C4.9499 7.2752 5.6999 7.1002 6.4999 7.1002C8.5499 7.1002 10.3499 8.2002 11.2749 9.8252C11.4999 9.4502 11.6249 9.0252 11.6999 8.6002C10.4999 7.0752 8.6249 6.0752 6.4999 6.0752Z" fill="white"/>
<path d="M5.5 8.25C5.63807 8.25 5.75 8.13807 5.75 8C5.75 7.86193 5.63807 7.75 5.5 7.75C5.36193 7.75 5.25 7.86193 5.25 8C5.25 8.13807 5.36193 8.25 5.5 8.25Z" fill="white"/>
<path d="M6.5 9.75C6.63807 9.75 6.75 9.63807 6.75 9.5C6.75 9.36193 6.63807 9.25 6.5 9.25C6.36193 9.25 6.25 9.36193 6.25 9.5C6.25 9.63807 6.36193 9.75 6.5 9.75Z" fill="white"/>
<path d="M8 9.75C8.13807 9.75 8.25 9.63807 8.25 9.5C8.25 9.36193 8.13807 9.25 8 9.25C7.86193 9.25 7.75 9.36193 7.75 9.5C7.75 9.63807 7.86193 9.75 8 9.75Z" fill="white"/>
<path d="M8 10.75C8.13807 10.75 8.25 10.6381 8.25 10.5C8.25 10.3619 8.13807 10.25 8 10.25C7.86193 10.25 7.75 10.3619 7.75 10.5C7.75 10.6381 7.86193 10.75 8 10.75Z" fill="white"/>
<path d="M10 9.75C10.1381 9.75 10.25 9.63807 10.25 9.5C10.25 9.36193 10.1381 9.25 10 9.25C9.86193 9.25 9.75 9.36193 9.75 9.5C9.75 9.63807 9.86193 9.75 10 9.75Z" fill="white"/>
<path d="M10 10.75C10.1381 10.75 10.25 10.6381 10.25 10.5C10.25 10.3619 10.1381 10.25 10 10.25C9.86193 10.25 9.75 10.3619 9.75 10.5C9.75 10.6381 9.86193 10.75 10 10.75Z" fill="white"/>
<path d="M9 10.25C9.13807 10.25 9.25 10.1381 9.25 10C9.25 9.86193 9.13807 9.75 9 9.75C8.86193 9.75 8.75 9.86193 8.75 10C8.75 10.1381 8.86193 10.25 9 10.25Z" fill="white"/>
<path d="M5.5 9.25C5.63807 9.25 5.75 9.13807 5.75 9C5.75 8.86193 5.63807 8.75 5.5 8.75C5.36193 8.75 5.25 8.86193 5.25 9C5.25 9.13807 5.36193 9.25 5.5 9.25Z" fill="white"/>
</svg>
