<svg width="16" height="16" viewBox="0 0 16 16" fill="none" xmlns="http://www.w3.org/2000/svg">
<path d="M8 15.5C12.1421 15.5 15.5 12.1421 15.5 8C15.5 3.85786 12.1421 0.5 8 0.5C3.85786 0.5 0.5 3.85786 0.5 8C0.5 12.1421 3.85786 15.5 8 15.5Z" fill="#F5F5F5"/>
<path d="M5.84993 8.42516C6.54993 8.90016 7.52493 8.70016 7.99993 8.00016C8.47493 7.30016 9.42493 7.10016 10.1499 7.57516C10.8249 8.02516 11.0249 8.90016 10.6499 9.57516C11.4749 8.17516 11.0999 6.35016 9.69993 5.42516C8.27493 4.47516 6.34993 4.85016 5.39993 6.27516C5.37493 6.32516 5.34993 6.37516 5.32493 6.40016C4.97493 7.12516 5.19993 7.97516 5.84993 8.42516Z" fill="#ED4C5C"/>
<path d="M10.1501 7.5748C9.45011 7.0998 8.47511 7.2998 8.00011 7.9998C7.52511 8.6998 6.57511 8.8998 5.85011 8.4248C5.17511 7.9748 4.97511 7.0998 5.35011 6.4248C4.50011 7.8248 4.90011 9.6498 6.30011 10.5748C7.72511 11.5248 9.65011 11.1498 10.6001 9.7248C10.6251 9.6748 10.6501 9.6248 10.6751 9.5998C11.0251 8.8748 10.8001 8.0248 10.1501 7.5748Z" fill="#428BC1"/>
<path d="M1.9501 5.8249L3.6751 3.2499L3.5001 3.1249L3.3251 3.0249L1.6001 5.5999L1.7751 5.6999L1.9501 5.8249ZM2.4251 6.1499L2.6001 6.2499L4.3001 3.6749L4.1501 3.5749L3.9751 3.4499L2.2501 6.0249L2.4251 6.1499ZM4.6001 3.8749L2.9001 6.4499L3.0751 6.5749L3.2501 6.6749L4.9501 4.0999L4.7751 3.9999L4.6001 3.8749ZM12.1251 10.6249L12.3001 10.7499L13.1001 9.5499L12.9251 9.4249L12.7501 9.3249L11.9501 10.5249L12.1251 10.6249ZM14.0501 10.1749L13.2501 11.3749L13.4251 11.4999L13.6001 11.5999L14.4001 10.3999L14.2251 10.2999L14.0501 10.1749ZM12.9501 11.1749L13.7501 9.9749L13.5751 9.8499L13.4001 9.7499L12.6001 10.9499L12.7751 11.0499L12.9501 11.1749ZM12.0251 10.7999L11.8501 10.6999L11.0501 11.8999L11.2251 11.9999L11.4001 12.1249L12.2001 10.9249L12.0251 10.7999ZM12.6501 11.2249L12.5001 11.1249L11.7001 12.3249L11.8501 12.4249L12.0251 12.5499L12.8251 11.3499L12.6501 11.2249ZM13.1251 11.5499L12.3251 12.7499L12.5001 12.8749L12.6751 12.9749L13.4751 11.7749L13.3001 11.6499L13.1251 11.5499ZM1.7751 10.2999L1.6001 10.3999L3.3251 12.9749L3.5001 12.8749L3.6751 12.7499L1.9501 10.1749L1.7751 10.2999ZM3.3501 11.2249L3.1751 11.3499L3.9751 12.5499L4.1501 12.4249L4.3001 12.3249L3.5001 11.1249L3.3501 11.2249ZM3.0751 9.4249L2.9001 9.5499L4.6001 12.1249L4.7751 11.9999L4.9501 11.8999L3.2501 9.3249L3.0751 9.4249ZM2.2501 9.9749L3.0501 11.1749L3.2251 11.0499L3.4001 10.9499L2.6001 9.7499L2.4251 9.8499L2.2501 9.9749ZM13.3001 4.3499L13.4751 4.2249L12.6751 3.0249L12.5001 3.1249L12.3251 3.2499L13.1251 4.4499L13.3001 4.3499ZM12.0251 5.1999L12.2001 5.0749L11.4001 3.8749L11.2251 3.9999L11.0501 4.0999L11.8501 5.2999L12.0251 5.1999ZM13.2501 4.6249L14.0501 5.8249L14.2251 5.6999L14.4001 5.5999L13.6001 4.3999L13.4251 4.4999L13.2501 4.6249ZM13.5751 6.1499L13.7501 6.0249L12.0251 3.4499L11.8501 3.5749L11.7001 3.6749L13.4001 6.2499L13.5751 6.1499ZM12.9251 6.5749L13.1001 6.4499L12.3001 5.2499L12.1251 5.3749L11.9501 5.4749L12.7501 6.6749L12.9251 6.5749Z" fill="#3E4347"/>
</svg>
