<svg width="16" height="16" viewBox="0 0 16 16" fill="none" xmlns="http://www.w3.org/2000/svg">
<path d="M5.50005 15.075V11.625L2.92505 13.525C3.65005 14.2 4.52505 14.725 5.50005 15.075ZM10.5 15.075C11.475 14.725 12.35 14.2 13.075 13.525L10.5 11.6V15.075ZM0.925049 10.5C1.00005 10.75 1.10005 10.975 1.22505 11.225L2.20005 10.5H0.925049ZM13.8 10.5L14.775 11.225C14.875 11 14.975 10.75 15.075 10.5H13.8Z" fill="#2A5F9E"/>
<path d="M5.8749 9.5H0.649902C0.724902 9.85 0.824902 10.175 0.924902 10.5H2.1999L1.2249 11.225C1.4249 11.65 1.6499 12.025 1.9249 12.4L4.4999 10.5H5.4999V11L2.5749 13.15L2.9249 13.5L5.4999 11.625V15.075C5.8249 15.2 6.1499 15.275 6.4999 15.35V9.5H5.8749ZM15.3499 9.5H9.4999V15.35C9.8499 15.275 10.1749 15.175 10.4999 15.075V11.625L13.0749 13.5C13.4249 13.175 13.7249 12.825 14.0249 12.45L11.3499 10.5H13.0499L14.5749 11.625C14.6499 11.5 14.7249 11.35 14.7749 11.225L13.7999 10.5H15.0749C15.1749 10.175 15.2749 9.85 15.3499 9.5Z" fill="white"/>
<path d="M1.92505 12.4C2.12505 12.675 2.32505 12.925 2.55005 13.175L5.50005 11.025V10.525H4.50005L1.92505 12.4ZM11.375 10.5L14.05 12.45C14.15 12.325 14.225 12.2 14.325 12.075C14.35 12.05 14.35 12.025 14.375 12.025C14.45 11.9 14.55 11.75 14.625 11.625L13.05 10.5H11.375Z" fill="#ED4C5C"/>
<path d="M10.5 0.924805V4.3748L13.075 2.4748C12.35 1.7998 11.475 1.2748 10.5 0.924805ZM5.50005 0.924805C4.52505 1.2748 3.65005 1.7998 2.92505 2.4748L5.50005 4.3998V0.924805ZM15.075 5.4998C15 5.2498 14.9 5.0248 14.775 4.7748L13.8 5.4998H15.075ZM2.20005 5.4998L1.22505 4.7748C1.12505 5.0248 1.02505 5.2498 0.925049 5.4998H2.20005Z" fill="#2A5F9E"/>
<path d="M10.1249 6.50039H15.3249C15.2499 6.15039 15.1499 5.82539 15.0499 5.50039H13.7749L14.7499 4.77539C14.5499 4.35039 14.3249 3.97539 14.0499 3.60039L11.4999 5.50039H10.4999V5.00039L13.4249 2.85039L13.0749 2.50039L10.4999 4.37539V0.925391C10.1749 0.800391 9.8499 0.725391 9.4999 0.650391V6.50039H10.1249ZM0.649902 6.50039H6.4999V0.650391C6.1499 0.725391 5.8249 0.825391 5.4999 0.925391V4.37539L2.9249 2.50039C2.5749 2.82539 2.2749 3.17539 1.9749 3.55039L4.6499 5.50039H2.9499L1.4249 4.37539C1.3499 4.50039 1.2749 4.65039 1.2249 4.77539L2.1999 5.50039H0.924902C0.824902 5.82539 0.724902 6.15039 0.649902 6.50039Z" fill="white"/>
<path d="M14.0749 3.6002C13.8749 3.3252 13.6749 3.0752 13.4499 2.8252L10.4999 4.9752V5.4752H11.4999L14.0749 3.6002ZM4.6249 5.5002L1.9749 3.5502C1.8749 3.6752 1.7999 3.8002 1.6999 3.9252C1.6749 3.9502 1.6749 3.9752 1.6499 3.9752C1.5749 4.1002 1.4749 4.2502 1.3999 4.3752L2.9249 5.5002H4.6249Z" fill="#ED4C5C"/>
<path d="M15.35 6.5H9.5V0.65C9.025 0.55 8.525 0.5 8 0.5C7.2125 0.5 6.975 0.55 6.5 0.65V6.5H0.65C0.55 6.975 0.5 7.475 0.5 8C0.5 8.7875 0.55 9.025 0.65 9.5H6.5V15.35C6.975 15.45 7.475 15.5 8 15.5C8.7875 15.5 9.025 15.45 9.5 15.35V9.5H15.35C15.45 9.025 15.5 8.525 15.5 8C15.5 7.2125 15.45 6.975 15.35 6.5Z" fill="#ED4C5C"/>
</svg>
