<svg width="16" height="16" viewBox="0 0 16 16" fill="none" xmlns="http://www.w3.org/2000/svg">
<path d="M8 15.5C12.15 15.5 15.5 12.15 15.5 8H0.5C0.5 12.15 3.85 15.5 8 15.5Z" fill="#F9F9F9"/>
<path d="M8 0.5C3.85 0.5 0.5 3.85 0.5 8H15.5C15.5 3.85 12.15 0.5 8 0.5Z" fill="#ED4C5C"/>
<path d="M5.3 4.375L5 4.125H5.375L5.5 3.75L5.625 4.125H6L5.7 4.375L5.8 4.75L5.5 4.525L5.2 4.75L5.3 4.375ZM7.3 4.375L7 4.125H7.375L7.5 3.75L7.625 4.125H8L7.7 4.375L7.8 4.75L7.5 4.525L7.2 4.75L7.3 4.375ZM5.55 5.625L5.25 5.375H5.625L5.75 5L5.875 5.375H6.25L5.95 5.625L6.05 6L5.75 5.775L5.45 6L5.55 5.625ZM7.05 5.625L6.75 5.375H7.125L7.25 5L7.375 5.375H7.75L7.45 5.625L7.55 6L7.25 5.775L6.95 6L7.05 5.625ZM6.3 3.625L6 3.375H6.375L6.5 3L6.625 3.375H7L6.7 3.625L6.8 4L6.5 3.775L6.2 4L6.3 3.625Z" fill="#F9F9F9"/>
<path d="M6.1 7C4.9 7 3.95 5.975 3.95 4.725C3.95 3.475 4.925 2.45 6.1 2.45C6.2 2.45 6.275 2.45 6.35 2.475C6.05 2.325 5.725 2.25 5.375 2.25C4.075 2.25 3 3.375 3 4.75C3 6.125 4.075 7.25 5.375 7.25C5.775 7.25 6.175 7.15 6.5 6.95C6.375 6.975 6.25 7 6.1 7Z" fill="#F9F9F9"/>
</svg>
