<svg width="16" height="16" viewBox="0 0 16 16" fill="none" xmlns="http://www.w3.org/2000/svg">
<path d="M12 1.65C10.825 0.925 9.475 0.5 8 0.5V1.65H12Z" fill="#ED4C5C"/>
<path d="M8 2.80039H13.4C12.975 2.37539 12.5 1.97539 12 1.65039H8V2.80039Z" fill="white"/>
<path d="M8 3.9498H14.325C14.05 3.5248 13.75 3.1498 13.425 2.7998H8V3.9498Z" fill="#ED4C5C"/>
<path d="M8 5.1002H14.925C14.75 4.7002 14.55 4.3002 14.325 3.9502H8V5.1002Z" fill="white"/>
<path d="M8 6.24961H15.3C15.2 5.84961 15.075 5.47461 14.925 5.09961H8V6.24961Z" fill="#ED4C5C"/>
<path d="M8 7.42539H15.475C15.45 7.02539 15.375 6.65039 15.3 6.27539H8V7.42539Z" fill="white"/>
<path d="M15.475 7.4248H8V7.9998H0.5C0.5 8.1998 0.5 8.3748 0.525 8.5748H15.475C15.5 8.3748 15.5 8.1998 15.5 7.9998C15.5 7.7998 15.5 7.5998 15.475 7.4248Z" fill="#ED4C5C"/>
<path d="M0.699902 9.7252H15.2999C15.3999 9.3502 15.4499 8.9752 15.4749 8.5752H0.524902C0.549902 8.9502 0.599902 9.3502 0.699902 9.7252Z" fill="white"/>
<path d="M1.07495 10.8746H14.925C15.075 10.4996 15.2 10.1246 15.3 9.72461H0.699951C0.799951 10.1246 0.924951 10.4996 1.07495 10.8746Z" fill="#ED4C5C"/>
<path d="M1.67495 12.025H14.325C14.55 11.65 14.75 11.275 14.925 10.875H1.07495C1.24995 11.275 1.44995 11.65 1.67495 12.025Z" fill="white"/>
<path d="M2.57505 13.1754H13.425C13.75 12.8254 14.075 12.4254 14.325 12.0254H1.67505C1.92505 12.4504 2.25005 12.8254 2.57505 13.1754Z" fill="#ED4C5C"/>
<path d="M3.97495 14.3248H12.025C12.55 13.9998 13 13.5998 13.425 13.1748H2.57495C2.99995 13.6248 3.47495 13.9998 3.97495 14.3248Z" fill="white"/>
<path d="M8.0001 15.5002C9.4751 15.5002 10.8501 15.0752 12.0251 14.3252H3.9751C5.1501 15.0752 6.5251 15.5002 8.0001 15.5002Z" fill="#ED4C5C"/>
<path d="M4 1.65C3.475 1.975 3 2.375 2.575 2.8C2.225 3.15 1.925 3.55 1.675 3.95C1.45 4.325 1.225 4.7 1.075 5.1C0.925 5.475 0.8 5.85 0.7 6.25C0.6 6.625 0.55 7 0.525 7.4C0.5 7.6 0.5 7.8 0.5 8H8V0.5C6.525 0.5 5.175 0.925 4 1.65Z" fill="#428BC1"/>
<path d="M6.2501 0.75L6.3751 1.125H6.7501L6.4501 1.375L6.5501 1.75L6.2501 1.525L5.9501 1.75L6.0501 1.375L5.7501 1.125H6.1251L6.2501 0.75ZM7.2501 2.25L7.3751 2.625H7.7501L7.4501 2.875L7.5501 3.25L7.2501 3.025L6.9501 3.25L7.0501 2.875L6.7501 2.625H7.1251L7.2501 2.25ZM5.2501 2.25L5.3751 2.625H5.7501L5.4501 2.875L5.5501 3.25L5.2501 3.025L4.9501 3.25L5.0501 2.875L4.7501 2.625H5.1251L5.2501 2.25ZM6.2501 3.75L6.3751 4.125H6.7501L6.4501 4.375L6.5501 4.75L6.2501 4.525L5.9501 4.75L6.0501 4.375L5.7501 4.125H6.1251L6.2501 3.75ZM4.2501 3.75L4.3751 4.125H4.7501L4.4501 4.375L4.5501 4.75L4.2501 4.525L3.9501 4.75L4.0501 4.375L3.7501 4.125H4.1251L4.2501 3.75ZM2.2501 3.75L2.3751 4.125H2.7501L2.4501 4.375L2.5501 4.75L2.2501 4.525L1.9501 4.75L2.0501 4.375L1.7501 4.125H2.1251L2.2501 3.75ZM7.2501 5.25L7.3751 5.625H7.7501L7.4501 5.875L7.5501 6.25L7.2501 6.025L6.9501 6.25L7.0501 5.875L6.7501 5.625H7.1251L7.2501 5.25ZM5.2501 5.25L5.3751 5.625H5.7501L5.4501 5.875L5.5501 6.25L5.2501 6.025L4.9501 6.25L5.0501 5.875L4.7501 5.625H5.1251L5.2501 5.25ZM3.2501 5.25L3.3751 5.625H3.7501L3.4501 5.875L3.5501 6.25L3.2501 6.025L2.9501 6.25L3.0501 5.875L2.7501 5.625H3.1251L3.2501 5.25ZM6.2501 6.75L6.3751 7.125H6.7501L6.4501 7.375L6.5501 7.75L6.2501 7.525L5.9501 7.75L6.0501 7.375L5.7501 7.125H6.1251L6.2501 6.75ZM4.2501 6.75L4.3751 7.125H4.7501L4.4501 7.375L4.5501 7.75L4.2501 7.525L3.9501 7.75L4.0501 7.375L3.7501 7.125H4.1251L4.2501 6.75ZM2.2501 6.75L2.3751 7.125H2.7501L2.4501 7.375L2.5501 7.75L2.2501 7.525L1.9501 7.75L2.0501 7.375L1.7501 7.125H2.1251L2.2501 6.75ZM2.9501 3.25L3.2501 3.025L3.5501 3.25L3.4251 2.875L3.7251 2.625H3.3501L3.2501 2.25L3.1251 2.625H2.7751L3.0751 2.85L2.9501 3.25ZM0.950098 6.25L1.2501 6.025L1.5501 6.25L1.4251 5.875L1.7251 5.625H1.3751L1.2501 5.25L1.1251 5.625H0.875098C0.875098 5.65 0.850098 5.675 0.850098 5.7L1.0501 5.85L0.950098 6.25Z" fill="white"/>
</svg>
