<svg width="33" height="33" viewBox="0 0 33 33" fill="none" xmlns="http://www.w3.org/2000/svg">
<path d="M19.7096 5.41278C19.7096 3.70289 18.3528 2.29834 16.679 2.29834C15.0052 2.29834 13.6384 3.70289 13.6484 5.41278V13.4228H5.85388C4.19 13.4228 2.82324 14.8172 2.82324 16.5372C2.82324 18.2471 4.19 19.6517 5.85388 19.6517H13.6484V27.6515C13.6484 29.3614 15.0052 30.766 16.679 30.766C18.3429 30.766 19.7096 29.3716 19.7096 27.6515V19.6517H27.4942C29.1581 19.6517 30.5248 18.2573 30.5248 16.5372C30.5248 14.8274 29.168 13.4228 27.4942 13.4228H19.7096V5.41278Z" fill="url(#paint0_linear_533_901)"/>
<path d="M19.7096 5.41278C19.7096 3.70289 18.3528 2.29834 16.679 2.29834C15.0052 2.29834 13.6384 3.70289 13.6484 5.41278V13.4228H5.85388C4.19 13.4228 2.82324 14.8172 2.82324 16.5372C2.82324 18.2471 4.19 19.6517 5.85388 19.6517H13.6484V27.6515C13.6484 29.3614 15.0052 30.766 16.679 30.766C18.3429 30.766 19.7096 29.3716 19.7096 27.6515V19.6517H27.4942C29.1581 19.6517 30.5248 18.2573 30.5248 16.5372C30.5248 14.8274 29.168 13.4228 27.4942 13.4228H19.7096V5.41278Z" fill="url(#paint1_linear_533_901)"/>
<path d="M19.7096 5.41278C19.7096 3.70289 18.3528 2.29834 16.679 2.29834C15.0052 2.29834 13.6384 3.70289 13.6484 5.41278V13.4228H5.85388C4.19 13.4228 2.82324 14.8172 2.82324 16.5372C2.82324 18.2471 4.19 19.6517 5.85388 19.6517H13.6484V27.6515C13.6484 29.3614 15.0052 30.766 16.679 30.766C18.3429 30.766 19.7096 29.3716 19.7096 27.6515V19.6517H27.4942C29.1581 19.6517 30.5248 18.2573 30.5248 16.5372C30.5248 14.8274 29.168 13.4228 27.4942 13.4228H19.7096V5.41278Z" fill="url(#paint2_linear_533_901)"/>
<path d="M19.7096 5.41278C19.7096 3.70289 18.3528 2.29834 16.679 2.29834C15.0052 2.29834 13.6384 3.70289 13.6484 5.41278V13.4228H5.85388C4.19 13.4228 2.82324 14.8172 2.82324 16.5372C2.82324 18.2471 4.19 19.6517 5.85388 19.6517H13.6484V27.6515C13.6484 29.3614 15.0052 30.766 16.679 30.766C18.3429 30.766 19.7096 29.3716 19.7096 27.6515V19.6517H27.4942C29.1581 19.6517 30.5248 18.2573 30.5248 16.5372C30.5248 14.8274 29.168 13.4228 27.4942 13.4228H19.7096V5.41278Z" fill="url(#paint3_radial_533_901)"/>
<path d="M19.7096 5.41278C19.7096 3.70289 18.3528 2.29834 16.679 2.29834C15.0052 2.29834 13.6384 3.70289 13.6484 5.41278V13.4228H5.85388C4.19 13.4228 2.82324 14.8172 2.82324 16.5372C2.82324 18.2471 4.19 19.6517 5.85388 19.6517H13.6484V27.6515C13.6484 29.3614 15.0052 30.766 16.679 30.766C18.3429 30.766 19.7096 29.3716 19.7096 27.6515V19.6517H27.4942C29.1581 19.6517 30.5248 18.2573 30.5248 16.5372C30.5248 14.8274 29.168 13.4228 27.4942 13.4228H19.7096V5.41278Z" fill="url(#paint4_radial_533_901)"/>
<path d="M19.7096 5.41278C19.7096 3.70289 18.3528 2.29834 16.679 2.29834C15.0052 2.29834 13.6384 3.70289 13.6484 5.41278V13.4228H5.85388C4.19 13.4228 2.82324 14.8172 2.82324 16.5372C2.82324 18.2471 4.19 19.6517 5.85388 19.6517H13.6484V27.6515C13.6484 29.3614 15.0052 30.766 16.679 30.766C18.3429 30.766 19.7096 29.3716 19.7096 27.6515V19.6517H27.4942C29.1581 19.6517 30.5248 18.2573 30.5248 16.5372C30.5248 14.8274 29.168 13.4228 27.4942 13.4228H19.7096V5.41278Z" fill="url(#paint5_radial_533_901)"/>
<path d="M19.7096 5.41278C19.7096 3.70289 18.3528 2.29834 16.679 2.29834C15.0052 2.29834 13.6384 3.70289 13.6484 5.41278V13.4228H5.85388C4.19 13.4228 2.82324 14.8172 2.82324 16.5372C2.82324 18.2471 4.19 19.6517 5.85388 19.6517H13.6484V27.6515C13.6484 29.3614 15.0052 30.766 16.679 30.766C18.3429 30.766 19.7096 29.3716 19.7096 27.6515V19.6517H27.4942C29.1581 19.6517 30.5248 18.2573 30.5248 16.5372C30.5248 14.8274 29.168 13.4228 27.4942 13.4228H19.7096V5.41278Z" fill="url(#paint6_radial_533_901)"/>
<defs>
<linearGradient id="paint0_linear_533_901" x1="16.674" y1="2.29834" x2="16.674" y2="28.5299" gradientUnits="userSpaceOnUse">
<stop stop-color="#7366AD"/>
<stop offset="1" stop-color="#7D5DD4"/>
</linearGradient>
<linearGradient id="paint1_linear_533_901" x1="16.674" y1="13.2213" x2="16.674" y2="20.1097" gradientUnits="userSpaceOnUse">
<stop stop-color="#655898"/>
<stop offset="0.214" stop-color="#8276BD"/>
<stop offset="0.335" stop-color="#897EC1"/>
<stop offset="0.523" stop-color="#7966C1"/>
<stop offset="0.863" stop-color="#8842EC"/>
<stop offset="1" stop-color="#6035BE"/>
</linearGradient>
<linearGradient id="paint2_linear_533_901" x1="13.7177" y1="9.42288" x2="21.4092" y2="9.42288" gradientUnits="userSpaceOnUse">
<stop stop-color="#564199" stop-opacity="0"/>
<stop offset="0.352" stop-color="#7362AF"/>
<stop offset="0.563" stop-color="#8878CA"/>
<stop offset="0.643" stop-color="#8878CA"/>
<stop offset="0.849" stop-color="#9489CB" stop-opacity="0"/>
</linearGradient>
<radialGradient id="paint3_radial_533_901" cx="0" cy="0" r="1" gradientUnits="userSpaceOnUse" gradientTransform="translate(16.9959 29.565) rotate(90) scale(2.90168 5.2909)">
<stop offset="0.096" stop-color="#9447FE"/>
<stop offset="0.846" stop-color="#7D6CBB" stop-opacity="0"/>
</radialGradient>
<radialGradient id="paint4_radial_533_901" cx="0" cy="0" r="1" gradientUnits="userSpaceOnUse" gradientTransform="translate(3.08075 15.6884) rotate(180) scale(3.2311 4.69195)">
<stop offset="0.11" stop-color="#41366A"/>
<stop offset="1" stop-color="#7E5FCD" stop-opacity="0"/>
</radialGradient>
<radialGradient id="paint5_radial_533_901" cx="0" cy="0" r="1" gradientUnits="userSpaceOnUse" gradientTransform="translate(17.8714 4.14869) rotate(-58.5299) scale(1.999 2.66158)">
<stop offset="0.177" stop-color="#A398D8"/>
<stop offset="1" stop-color="#8A7ACC" stop-opacity="0"/>
</radialGradient>
<radialGradient id="paint6_radial_533_901" cx="0" cy="0" r="1" gradientUnits="userSpaceOnUse" gradientTransform="translate(19.5353 14.1454) rotate(-53.8774) scale(2.46168 1.75914)">
<stop offset="0.177" stop-color="#A398D8"/>
<stop offset="1" stop-color="#8A7ACC" stop-opacity="0"/>
</radialGradient>
</defs>
</svg>
