<svg width="992" height="622" viewBox="0 0 992 622" fill="none" xmlns="http://www.w3.org/2000/svg">
<g clip-path="url(#clip0_426_290)">
<rect width="992" height="622" rx="1" fill="#EEEEEE"/>
<path d="M444.363 315V308.455H445.505V315H444.363ZM444.942 307.406C444.735 307.406 444.556 307.335 444.406 307.193C444.258 307.051 444.184 306.881 444.184 306.682C444.184 306.486 444.258 306.317 444.406 306.175C444.556 306.033 444.735 305.962 444.942 305.962C445.15 305.962 445.327 306.033 445.475 306.175C445.626 306.317 445.701 306.486 445.701 306.682C445.701 306.881 445.626 307.051 445.475 307.193C445.327 307.335 445.15 307.406 444.942 307.406ZM447.281 315V308.455H448.38V309.499H448.466C448.602 309.143 448.822 308.866 449.126 308.668C449.433 308.469 449.801 308.369 450.23 308.369C450.664 308.369 451.028 308.469 451.321 308.668C451.616 308.866 451.839 309.143 451.99 309.499H452.058C452.22 309.155 452.47 308.881 452.808 308.676C453.146 308.472 453.551 308.369 454.022 308.369C454.61 308.369 455.091 308.554 455.463 308.923C455.838 309.293 456.025 309.857 456.025 310.615V315H454.887V310.675C454.887 310.212 454.761 309.879 454.508 309.678C454.255 309.473 453.956 309.371 453.609 309.371C453.172 309.371 452.832 309.504 452.591 309.771C452.349 310.036 452.228 310.372 452.228 310.781V315H451.082V310.585C451.082 310.222 450.966 309.929 450.733 309.707C450.502 309.483 450.204 309.371 449.838 309.371C449.585 309.371 449.35 309.437 449.135 309.571C448.922 309.705 448.75 309.889 448.619 310.125C448.488 310.358 448.423 310.628 448.423 310.935V315H447.281ZM459.71 315.149C459.295 315.149 458.919 315.071 458.581 314.915C458.246 314.759 457.979 314.533 457.78 314.237C457.584 313.939 457.486 313.575 457.486 313.146C457.486 312.774 457.558 312.47 457.703 312.234C457.851 311.996 458.047 311.808 458.291 311.672C458.536 311.536 458.807 311.433 459.105 311.365C459.403 311.297 459.706 311.244 460.013 311.207C460.408 311.156 460.727 311.116 460.972 311.088C461.219 311.06 461.399 311.013 461.513 310.947C461.626 310.882 461.683 310.77 461.683 310.611V310.577C461.683 310.182 461.574 309.875 461.355 309.656C461.136 309.438 460.808 309.328 460.371 309.328C459.916 309.328 459.56 309.428 459.301 309.626C459.043 309.825 458.861 310.043 458.756 310.278L457.682 309.972C457.838 309.574 458.055 309.259 458.334 309.026C458.615 308.79 458.929 308.622 459.276 308.523C459.625 308.42 459.982 308.369 460.345 308.369C460.581 308.369 460.841 308.398 461.125 308.455C461.409 308.509 461.679 308.615 461.935 308.774C462.193 308.93 462.406 309.162 462.574 309.469C462.741 309.773 462.825 310.173 462.825 310.67V315H461.7V314.109H461.649C461.575 314.263 461.457 314.42 461.295 314.582C461.134 314.741 460.922 314.876 460.661 314.987C460.399 315.095 460.082 315.149 459.71 315.149ZM459.923 314.186C460.301 314.186 460.621 314.112 460.882 313.964C461.143 313.817 461.342 313.625 461.479 313.389C461.618 313.153 461.688 312.902 461.688 312.635V311.753C461.642 311.801 461.551 311.845 461.415 311.885C461.278 311.925 461.122 311.959 460.946 311.987C460.773 312.016 460.602 312.041 460.435 312.064C460.27 312.084 460.134 312.101 460.026 312.115C459.773 312.149 459.538 312.203 459.322 312.277C459.109 312.351 458.938 312.46 458.807 312.605C458.679 312.747 458.615 312.939 458.615 313.18C458.615 313.513 458.739 313.764 458.986 313.935C459.233 314.102 459.545 314.186 459.923 314.186ZM467.283 317.591C466.78 317.591 466.348 317.526 465.987 317.395C465.626 317.267 465.328 317.097 465.092 316.884C464.859 316.67 464.68 316.44 464.555 316.193L465.501 315.686C465.587 315.808 465.696 315.943 465.83 316.091C465.966 316.239 466.151 316.366 466.384 316.474C466.616 316.582 466.919 316.636 467.291 316.636C467.797 316.636 468.214 316.513 468.544 316.266C468.874 316.021 469.038 315.635 469.038 315.107V313.798H468.953C468.879 313.929 468.773 314.081 468.634 314.254C468.494 314.425 468.298 314.575 468.045 314.706C467.795 314.834 467.464 314.898 467.053 314.898C466.53 314.898 466.06 314.776 465.642 314.531C465.227 314.284 464.899 313.922 464.658 313.445C464.416 312.967 464.295 312.385 464.295 311.697C464.295 311.016 464.413 310.426 464.649 309.929C464.885 309.429 465.212 309.044 465.629 308.774C466.047 308.504 466.526 308.369 467.065 308.369C467.483 308.369 467.817 308.439 468.067 308.578C468.317 308.714 468.51 308.872 468.646 309.051C468.786 309.23 468.893 309.381 468.97 309.503H469.064V308.455H470.176V315.166C470.176 315.729 470.047 316.188 469.788 316.543C469.533 316.901 469.186 317.165 468.749 317.335C468.311 317.506 467.822 317.591 467.283 317.591ZM467.261 313.918C467.648 313.918 467.973 313.83 468.237 313.653C468.504 313.474 468.707 313.217 468.847 312.882C468.986 312.547 469.055 312.146 469.055 311.68C469.055 311.223 468.987 310.821 468.851 310.474C468.714 310.128 468.513 309.857 468.246 309.661C467.979 309.462 467.651 309.362 467.261 309.362C466.858 309.362 466.521 309.466 466.251 309.673C465.982 309.881 465.778 310.159 465.642 310.509C465.509 310.858 465.442 311.249 465.442 311.68C465.442 312.124 465.51 312.513 465.646 312.848C465.786 313.183 465.989 313.446 466.256 313.636C466.526 313.824 466.861 313.918 467.261 313.918ZM474.736 315.136C474.097 315.136 473.547 314.997 473.087 314.719C472.626 314.438 472.271 314.045 472.021 313.543C471.774 313.037 471.651 312.447 471.651 311.774C471.651 311.104 471.774 310.513 472.021 310.001C472.271 309.487 472.619 309.087 473.065 308.8C473.514 308.513 474.038 308.369 474.638 308.369C474.993 308.369 475.339 308.429 475.678 308.548C476.018 308.665 476.325 308.852 476.598 309.111C476.874 309.366 477.091 309.703 477.25 310.121C477.412 310.538 477.493 311.048 477.493 311.651V312.089H472.366V311.178H476.355C476.355 310.825 476.284 310.513 476.142 310.24C476.003 309.964 475.804 309.747 475.545 309.588C475.29 309.429 474.989 309.349 474.642 309.349C474.261 309.349 473.932 309.442 473.653 309.626C473.378 309.811 473.165 310.053 473.014 310.351C472.864 310.649 472.788 310.97 472.788 311.314V311.974C472.788 312.44 472.869 312.837 473.031 313.163C473.196 313.487 473.425 313.734 473.717 313.905C474.01 314.072 474.351 314.156 474.74 314.156C474.993 314.156 475.223 314.121 475.43 314.05C475.638 313.976 475.815 313.866 475.963 313.722C476.114 313.577 476.23 313.395 476.312 313.176L477.403 313.423C477.304 313.764 477.131 314.064 476.884 314.322C476.639 314.578 476.334 314.778 475.967 314.923C475.604 315.065 475.193 315.136 474.736 315.136ZM482.25 317.455V308.455H483.358V309.503H483.473C483.547 309.381 483.652 309.23 483.788 309.051C483.924 308.872 484.116 308.714 484.363 308.578C484.61 308.439 484.943 308.369 485.36 308.369C485.897 308.369 486.375 308.506 486.792 308.778C487.21 309.048 487.537 309.436 487.772 309.942C488.011 310.445 488.13 311.045 488.13 311.744C488.13 312.443 488.012 313.045 487.777 313.551C487.541 314.057 487.216 314.447 486.801 314.723C486.386 314.996 485.91 315.132 485.373 315.132C484.964 315.132 484.633 315.064 484.38 314.928C484.13 314.791 483.934 314.634 483.792 314.455C483.653 314.273 483.547 314.116 483.473 313.986H483.392V317.455H482.25ZM483.37 311.727C483.37 312.205 483.44 312.625 483.579 312.989C483.718 313.349 483.92 313.632 484.184 313.837C484.451 314.038 484.778 314.139 485.164 314.139C485.562 314.139 485.896 314.033 486.166 313.82C486.436 313.607 486.639 313.318 486.775 312.955C486.914 312.588 486.984 312.179 486.984 311.727C486.984 311.281 486.916 310.881 486.779 310.526C486.646 310.168 486.444 309.885 486.174 309.678C485.904 309.467 485.568 309.362 485.164 309.362C484.772 309.362 484.443 309.462 484.176 309.661C483.912 309.857 483.711 310.132 483.575 310.487C483.439 310.842 483.37 311.256 483.37 311.727ZM490.751 306.273V315H489.609V306.273H490.751ZM494.445 315.149C494.03 315.149 493.653 315.071 493.315 314.915C492.98 314.759 492.713 314.533 492.514 314.237C492.318 313.939 492.22 313.575 492.22 313.146C492.22 312.774 492.293 312.47 492.438 312.234C492.585 311.996 492.781 311.808 493.026 311.672C493.27 311.536 493.541 311.433 493.839 311.365C494.138 311.297 494.44 311.244 494.747 311.207C495.142 311.156 495.462 311.116 495.706 311.088C495.953 311.06 496.134 311.013 496.247 310.947C496.361 310.882 496.418 310.77 496.418 310.611V310.577C496.418 310.182 496.308 309.875 496.089 309.656C495.871 309.438 495.543 309.328 495.105 309.328C494.651 309.328 494.294 309.428 494.036 309.626C493.777 309.825 493.595 310.043 493.49 310.278L492.416 309.972C492.572 309.574 492.79 309.259 493.068 309.026C493.349 308.79 493.663 308.622 494.01 308.523C494.359 308.42 494.716 308.369 495.08 308.369C495.315 308.369 495.575 308.398 495.859 308.455C496.143 308.509 496.413 308.615 496.669 308.774C496.928 308.93 497.141 309.162 497.308 309.469C497.476 309.773 497.56 310.173 497.56 310.67V315H496.435V314.109H496.384C496.31 314.263 496.192 314.42 496.03 314.582C495.868 314.741 495.656 314.876 495.395 314.987C495.134 315.095 494.817 315.149 494.445 315.149ZM494.658 314.186C495.036 314.186 495.355 314.112 495.616 313.964C495.878 313.817 496.077 313.625 496.213 313.389C496.352 313.153 496.422 312.902 496.422 312.635V311.753C496.376 311.801 496.286 311.845 496.149 311.885C496.013 311.925 495.857 311.959 495.68 311.987C495.507 312.016 495.337 312.041 495.169 312.064C495.004 312.084 494.868 312.101 494.76 312.115C494.507 312.149 494.273 312.203 494.057 312.277C493.844 312.351 493.672 312.46 493.541 312.605C493.413 312.747 493.349 312.939 493.349 313.18C493.349 313.513 493.473 313.764 493.72 313.935C493.967 314.102 494.28 314.186 494.658 314.186ZM502.034 315.136C501.412 315.136 500.875 314.991 500.423 314.702C499.974 314.412 499.629 314.013 499.388 313.504C499.146 312.996 499.026 312.415 499.026 311.761C499.026 311.094 499.149 310.506 499.396 309.997C499.646 309.489 499.994 309.091 500.44 308.804C500.889 308.514 501.415 308.369 502.017 308.369C502.497 308.369 502.926 308.457 503.304 308.634C503.685 308.81 503.994 309.057 504.233 309.375C504.472 309.693 504.616 310.065 504.668 310.491H503.543C503.472 310.187 503.308 309.923 503.053 309.699C502.8 309.472 502.462 309.358 502.038 309.358C501.663 309.358 501.335 309.456 501.054 309.652C500.776 309.845 500.558 310.119 500.402 310.474C500.249 310.83 500.172 311.247 500.172 311.727C500.172 312.219 500.249 312.645 500.402 313.006C500.555 313.366 500.771 313.646 501.05 313.845C501.331 314.044 501.661 314.143 502.038 314.143C502.291 314.143 502.52 314.098 502.724 314.007C502.929 313.916 503.102 313.787 503.244 313.619C503.386 313.449 503.486 313.246 503.543 313.01H504.668C504.614 313.413 504.473 313.776 504.246 314.097C504.021 314.418 503.722 314.672 503.347 314.859C502.972 315.044 502.534 315.136 502.034 315.136ZM508.873 315.136C508.233 315.136 507.684 314.997 507.223 314.719C506.763 314.438 506.408 314.045 506.158 313.543C505.911 313.037 505.787 312.447 505.787 311.774C505.787 311.104 505.911 310.513 506.158 310.001C506.408 309.487 506.756 309.087 507.202 308.8C507.651 308.513 508.175 308.369 508.775 308.369C509.13 308.369 509.476 308.429 509.814 308.548C510.155 308.665 510.462 308.852 510.735 309.111C511.01 309.366 511.228 309.703 511.387 310.121C511.549 310.538 511.63 311.048 511.63 311.651V312.089H506.503V311.178H510.492C510.492 310.825 510.421 310.513 510.279 310.24C510.14 309.964 509.941 309.747 509.682 309.588C509.426 309.429 509.125 309.349 508.779 309.349C508.398 309.349 508.069 309.442 507.79 309.626C507.515 309.811 507.301 310.053 507.151 310.351C507 310.649 506.925 310.97 506.925 311.314V311.974C506.925 312.44 507.006 312.837 507.168 313.163C507.333 313.487 507.561 313.734 507.854 313.905C508.147 314.072 508.488 314.156 508.877 314.156C509.13 314.156 509.36 314.121 509.567 314.05C509.775 313.976 509.952 313.866 510.1 313.722C510.25 313.577 510.367 313.395 510.449 313.176L511.54 313.423C511.441 313.764 511.267 314.064 511.02 314.322C510.776 314.578 510.471 314.778 510.104 314.923C509.74 315.065 509.33 315.136 508.873 315.136ZM514.247 311.088V315H513.105V306.273H514.239V309.499H514.324C514.474 309.152 514.706 308.878 515.018 308.676C515.331 308.472 515.743 308.369 516.254 308.369C516.7 308.369 517.091 308.46 517.426 308.642C517.764 308.821 518.026 309.094 518.21 309.46C518.398 309.827 518.491 310.287 518.491 310.841V315H517.349V310.952C517.349 310.452 517.22 310.064 516.962 309.788C516.706 309.513 516.349 309.375 515.892 309.375C515.577 309.375 515.294 309.442 515.044 309.575C514.797 309.709 514.602 309.903 514.46 310.159C514.318 310.415 514.247 310.724 514.247 311.088ZM522.975 315.136C522.373 315.136 521.846 314.996 521.395 314.714C520.943 314.43 520.592 314.036 520.342 313.53C520.092 313.024 519.967 312.435 519.967 311.761C519.967 311.08 520.092 310.484 520.342 309.976C520.592 309.467 520.943 309.072 521.395 308.791C521.846 308.51 522.373 308.369 522.975 308.369C523.578 308.369 524.105 308.51 524.556 308.791C525.008 309.072 525.359 309.467 525.609 309.976C525.859 310.484 525.984 311.08 525.984 311.761C525.984 312.435 525.859 313.024 525.609 313.53C525.359 314.036 525.008 314.43 524.556 314.714C524.105 314.996 523.578 315.136 522.975 315.136ZM522.975 314.148C523.402 314.148 523.751 314.038 524.024 313.82C524.299 313.598 524.504 313.307 524.637 312.946C524.771 312.582 524.838 312.186 524.838 311.757C524.838 311.331 524.771 310.936 524.637 310.572C524.504 310.206 524.299 309.912 524.024 309.69C523.751 309.466 523.402 309.354 522.975 309.354C522.552 309.354 522.203 309.466 521.927 309.69C521.652 309.912 521.447 310.206 521.314 310.572C521.18 310.936 521.113 311.331 521.113 311.757C521.113 312.186 521.18 312.582 521.314 312.946C521.447 313.307 521.652 313.598 521.927 313.82C522.203 314.038 522.552 314.148 522.975 314.148ZM528.603 306.273V315H527.461V306.273H528.603ZM532.842 315.132C532.305 315.132 531.829 314.996 531.414 314.723C530.999 314.447 530.674 314.057 530.438 313.551C530.202 313.045 530.085 312.443 530.085 311.744C530.085 311.045 530.202 310.445 530.438 309.942C530.674 309.436 531.001 309.048 531.418 308.778C531.836 308.506 532.315 308.369 532.854 308.369C533.272 308.369 533.604 308.439 533.852 308.578C534.099 308.714 534.29 308.872 534.427 309.051C534.563 309.23 534.668 309.381 534.742 309.503H534.823V306.273H535.961V315H534.853V313.986H534.742C534.665 314.116 534.558 314.273 534.418 314.455C534.279 314.634 534.083 314.791 533.83 314.928C533.58 315.064 533.251 315.132 532.842 315.132ZM533.05 314.139C533.437 314.139 533.762 314.038 534.026 313.837C534.293 313.632 534.496 313.349 534.636 312.989C534.775 312.625 534.844 312.205 534.844 311.727C534.844 311.256 534.776 310.842 534.64 310.487C534.504 310.132 534.302 309.857 534.035 309.661C533.768 309.462 533.44 309.362 533.05 309.362C532.647 309.362 532.31 309.467 532.04 309.678C531.771 309.885 531.567 310.168 531.431 310.526C531.298 310.881 531.231 311.281 531.231 311.727C531.231 312.179 531.299 312.588 531.435 312.955C531.575 313.318 531.778 313.607 532.045 313.82C532.315 314.033 532.65 314.139 533.05 314.139ZM540.642 315.136C540.003 315.136 539.453 314.997 538.993 314.719C538.533 314.438 538.178 314.045 537.928 313.543C537.68 313.037 537.557 312.447 537.557 311.774C537.557 311.104 537.68 310.513 537.928 310.001C538.178 309.487 538.526 309.087 538.972 308.8C539.42 308.513 539.945 308.369 540.544 308.369C540.899 308.369 541.246 308.429 541.584 308.548C541.925 308.665 542.232 308.852 542.504 309.111C542.78 309.366 542.997 309.703 543.156 310.121C543.318 310.538 543.399 311.048 543.399 311.651V312.089H538.273V311.178H542.261C542.261 310.825 542.19 310.513 542.048 310.24C541.909 309.964 541.71 309.747 541.452 309.588C541.196 309.429 540.895 309.349 540.548 309.349C540.168 309.349 539.838 309.442 539.56 309.626C539.284 309.811 539.071 310.053 538.92 310.351C538.77 310.649 538.695 310.97 538.695 311.314V311.974C538.695 312.44 538.776 312.837 538.938 313.163C539.102 313.487 539.331 313.734 539.624 313.905C539.916 314.072 540.257 314.156 540.646 314.156C540.899 314.156 541.129 314.121 541.337 314.05C541.544 313.976 541.722 313.866 541.869 313.722C542.02 313.577 542.136 313.395 542.219 313.176L543.31 313.423C543.21 313.764 543.037 314.064 542.79 314.322C542.545 314.578 542.24 314.778 541.874 314.923C541.51 315.065 541.099 315.136 540.642 315.136ZM544.875 315V308.455H545.978V309.469H546.047C546.166 309.131 546.379 308.861 546.686 308.659C546.995 308.455 547.343 308.352 547.73 308.352C547.806 308.352 547.899 308.355 548.007 308.361C548.118 308.364 548.204 308.369 548.267 308.378V309.499C548.224 309.487 548.139 309.473 548.011 309.456C547.886 309.436 547.758 309.426 547.627 309.426C547.318 309.426 547.041 309.491 546.797 309.622C546.555 309.75 546.365 309.928 546.225 310.155C546.086 310.382 546.017 310.641 546.017 310.93V315H544.875Z" fill="#BBBBBB"/>
<path d="M0.265613 -0.423615C0.0316573 -0.570309 -0.276921 -0.499569 -0.423615 -0.265613C-0.570309 -0.0316573 -0.499569 0.276921 -0.265613 0.423615L0.265613 -0.423615ZM470.217 295.424C470.451 295.57 470.759 295.5 470.906 295.266C471.053 295.032 470.982 294.723 470.748 294.576L470.217 295.424ZM521.783 326.576C521.549 326.43 521.241 326.5 521.094 326.734C520.947 326.968 521.018 327.277 521.252 327.424L521.783 326.576ZM991.734 622.424C991.968 622.57 992.277 622.5 992.424 622.266C992.57 622.032 992.5 621.723 992.266 621.576L991.734 622.424ZM-0.265613 0.423615L470.217 295.424L470.748 294.576L0.265613 -0.423615L-0.265613 0.423615ZM521.252 327.424L991.734 622.424L992.266 621.576L521.783 326.576L521.252 327.424Z" fill="#BBBBBB"/>
</g>
<defs>
<clipPath id="clip0_426_290">
<rect width="992" height="622" rx="1" fill="white"/>
</clipPath>
</defs>
</svg>
