<svg width="16" height="16" viewBox="0 0 16 16" fill="none" xmlns="http://www.w3.org/2000/svg">
<path d="M0 0H16V16H0V0Z" fill="url(#paint0_linear_226_537)"/>
<path d="M12.1672 8.57853L12.244 8.03778C12.9521 8.46197 12.9614 8.63715 12.9612 8.64196C12.9599 8.64296 12.8392 8.74378 12.1672 8.57853ZM11.7785 8.47053C10.5545 8.10015 8.84998 7.31815 8.16016 6.99215C8.16016 6.98934 8.16098 6.98678 8.16098 6.98396C8.16098 6.71896 7.94535 6.50334 7.68016 6.50334C7.41535 6.50334 7.19973 6.71896 7.19973 6.98396C7.19973 7.24896 7.41535 7.46459 7.68016 7.46459C7.79654 7.46459 7.90216 7.42115 7.98554 7.35209C8.79716 7.73634 10.4885 8.50697 11.7215 8.87097L11.234 12.3122C11.2326 12.3215 11.2319 12.3309 11.232 12.3403C11.232 12.6433 9.89054 13.2 7.69873 13.2C5.48373 13.2 4.1281 12.6433 4.1281 12.3403C4.1281 12.3312 4.12752 12.3221 4.12635 12.3132L3.1076 4.87178C3.98935 5.47878 5.88598 5.7999 7.69998 5.7999C9.51116 5.7999 11.4045 5.4799 12.2881 4.87478L11.7785 8.47053ZM2.99998 4.09553C3.01435 3.8324 4.52673 2.7999 7.69998 2.7999C10.8727 2.7999 12.3853 3.83215 12.4 4.09553V4.18534C12.226 4.77553 10.266 5.39997 7.69998 5.39997C5.12954 5.39997 3.16854 4.77353 2.99998 4.18253V4.09553ZM12.8 4.0999C12.8 3.40696 10.8131 2.3999 7.69998 2.3999C4.58673 2.3999 2.59998 3.40696 2.59998 4.0999L2.61873 4.25078L3.72835 12.3555C3.75498 13.262 6.1721 13.5999 7.69873 13.5999C9.5931 13.5999 11.6057 13.1643 11.6317 12.3562L12.111 8.97678C12.3775 9.04053 12.597 9.07315 12.7732 9.07315C13.0097 9.07315 13.1697 9.01534 13.2667 8.89978C13.3464 8.80496 13.3767 8.69015 13.354 8.5679C13.3021 8.29115 12.9735 7.99278 12.3043 7.61096L12.7795 4.25853L12.8 4.0999Z" fill="white"/>
<defs>
<linearGradient id="paint0_linear_226_537" x1="0" y1="1600" x2="1600" y2="0" gradientUnits="userSpaceOnUse">
<stop stop-color="#1B660F"/>
<stop offset="1" stop-color="#6CAE3E"/>
</linearGradient>
</defs>
</svg>
