<svg width="16" height="16" viewBox="0 0 16 16" fill="none" xmlns="http://www.w3.org/2000/svg">
<path d="M0 0H16V16H0V0Z" fill="url(#paint0_linear_226_545)"/>
<path d="M3.08284 2.7999L4.9414 4.65853L4.65865 4.94128L2.80002 3.08271V4.5999H2.40002V2.5999C2.40002 2.57364 2.4052 2.54763 2.41525 2.52337C2.4253 2.4991 2.44003 2.47705 2.4586 2.45848C2.47717 2.43991 2.49922 2.42518 2.52349 2.41513C2.54775 2.40508 2.57376 2.3999 2.60002 2.3999H4.60002V2.7999H3.08284ZM13.6 2.5999V4.5999H13.2V3.08271L11.3414 4.94128L11.0586 4.65853L12.9172 2.7999H11.4V2.3999H13.4C13.4531 2.3999 13.5039 2.42097 13.5414 2.45848C13.579 2.49599 13.6 2.54686 13.6 2.5999ZM13.2 11.3999H13.6V13.3999C13.6 13.4529 13.579 13.5038 13.5414 13.5413C13.5039 13.5788 13.4531 13.5999 13.4 13.5999H11.4V13.1999H12.9172L11.0586 11.3413L11.3414 11.0585L13.2 12.9171V11.3999ZM13.1 7.84253C13.1 7.17871 12.3336 6.5229 11.05 6.08828L11.1782 5.70953C12.6536 6.2089 13.5 6.98628 13.5 7.84253C13.5 8.6989 12.6536 9.47653 11.178 9.97565L11.0498 9.59671C12.3336 9.16234 13.1 8.50671 13.1 7.84253ZM2.91127 7.84253C2.91127 8.47853 3.62865 9.1169 4.8304 9.55053L4.69465 9.92671C3.30702 9.42609 2.51121 8.66653 2.51121 7.84253C2.51121 7.01871 3.30702 6.25909 4.69465 5.75828L4.8304 6.13453C3.62865 6.56828 2.91121 7.20671 2.91121 7.84253M4.94134 11.3413L3.08284 13.1999H4.60002V13.5999H2.60002C2.57376 13.5999 2.54775 13.5947 2.52349 13.5847C2.49922 13.5746 2.47717 13.5599 2.4586 13.5413C2.44003 13.5228 2.4253 13.5007 2.41525 13.4764C2.4052 13.4522 2.40002 13.4262 2.40002 13.3999V11.3999H2.80002V12.9171L4.65865 11.0585L4.94134 11.3413ZM8.00002 6.25709C6.57084 6.25709 5.80002 5.8879 5.80002 5.73709C5.80002 5.58609 6.57084 5.21709 8.00002 5.21709C9.42902 5.21709 10.2 5.58609 10.2 5.73709C10.2 5.8879 9.42902 6.25709 8.00002 6.25709ZM8.00584 7.80609C6.6374 7.80609 5.80002 7.43234 5.80002 7.2289V6.25671C6.29265 6.52853 7.1664 6.65709 8.00002 6.65709C8.83365 6.65709 9.7074 6.52853 10.2 6.25671V7.2289C10.2 7.43253 9.36702 7.80609 8.00584 7.80609ZM8.00584 9.33328C6.6374 9.33328 5.80002 8.95953 5.80002 8.75609V7.77234C6.28627 8.05809 7.1484 8.20609 8.00584 8.20609C8.8584 8.20609 9.71565 8.05828 10.2 7.77328V8.75615C10.2 8.95978 9.36702 9.33334 8.00584 9.33334M8.00002 10.7035C6.57665 10.7035 5.80002 10.3209 5.80002 10.1243V9.29953C6.28627 9.58528 7.1484 9.73328 8.00584 9.73328C8.8584 9.73328 9.71565 9.58571 10.2 9.30053V10.1243C10.2 10.3209 9.4234 10.7035 8.00002 10.7035ZM8.00002 4.81709C6.74784 4.81709 5.40002 5.1049 5.40002 5.73709V10.1243C5.40002 10.7671 6.70802 11.1035 8.00002 11.1035C9.29202 11.1035 10.6 10.7671 10.6 10.1243V5.73709C10.6 5.1049 9.25221 4.81709 8.00002 4.81709Z" fill="white"/>
<defs>
<linearGradient id="paint0_linear_226_545" x1="0" y1="1600" x2="1600" y2="0" gradientUnits="userSpaceOnUse">
<stop stop-color="#2E27AD"/>
<stop offset="1" stop-color="#527FFF"/>
</linearGradient>
</defs>
</svg>
