<svg width="16" height="16" viewBox="0 0 16 16" fill="none" xmlns="http://www.w3.org/2000/svg">
<path d="M0 0H16V16H0V0Z" fill="url(#paint0_linear_226_533)"/>
<path d="M5.40002 10.5999H10.4V5.5999H5.40002V10.5999ZM10.8 5.5999H11.6V5.9999H10.8V6.7999H11.6V7.1999H10.8V7.7999H11.6V8.1999H10.8V8.9999H11.6V9.3999H10.8V10.1999H11.6V10.5999H10.8V10.6271C10.7999 10.7259 10.7606 10.8207 10.6907 10.8906C10.6208 10.9605 10.5261 10.9998 10.4272 10.9999H10.4V11.7999H10V10.9999H9.20002V11.7999H8.80002V10.9999H8.20002V11.7999H7.80002V10.9999H7.00002V11.7999H6.60002V10.9999H5.80002V11.7999H5.40002V10.9999H5.37284C5.27399 10.9998 5.17921 10.9605 5.10931 10.8906C5.03941 10.8207 5.00011 10.7259 5.00002 10.6271V10.5999H4.40002V10.1999H5.00002V9.3999H4.40002V8.9999H5.00002V8.1999H4.40002V7.7999H5.00002V7.1999H4.40002V6.7999H5.00002V5.9999H4.40002V5.5999H5.00002V5.57271C5.00011 5.47386 5.03941 5.37909 5.10931 5.30919C5.17921 5.23929 5.27399 5.19998 5.37284 5.1999H5.40002V4.3999H5.80002V5.1999H6.60002V4.3999H7.00002V5.1999H7.80002V4.3999H8.20002V5.1999H8.80002V4.3999H9.20002V5.1999H10V4.3999H10.4V5.1999H10.4272C10.5261 5.19998 10.6208 5.23929 10.6907 5.30919C10.7606 5.37909 10.7999 5.47386 10.8 5.57271V5.5999ZM8.20002 13.1751C8.19998 13.1817 8.19735 13.1879 8.1927 13.1926C8.18806 13.1972 8.18178 13.1999 8.17521 13.1999H2.82484C2.81827 13.1999 2.81199 13.1972 2.80735 13.1926C2.8027 13.1879 2.80007 13.1817 2.80002 13.1751V7.82471C2.80007 7.81815 2.8027 7.81187 2.80735 7.80722C2.81199 7.80258 2.81827 7.79995 2.82484 7.7999H4.00002V7.3999H2.82484C2.71221 7.40003 2.60423 7.44483 2.5246 7.52447C2.44496 7.60411 2.40016 7.71209 2.40002 7.82471V13.1751C2.40016 13.2877 2.44496 13.3957 2.5246 13.4753C2.60423 13.555 2.71221 13.5998 2.82484 13.5999H8.17521C8.28784 13.5998 8.39581 13.555 8.47545 13.4753C8.55509 13.3957 8.59989 13.2877 8.60002 13.1751V12.1999H8.20002V13.1751ZM13.6 2.82471V8.17509C13.5999 8.28772 13.5551 8.39569 13.4755 8.47533C13.3958 8.55497 13.2878 8.59977 13.1752 8.5999H12V8.1999H13.1752C13.1818 8.19985 13.1881 8.19722 13.1927 8.19258C13.1973 8.18794 13.2 8.18165 13.2 8.17509V2.82471C13.2 2.81815 13.1973 2.81187 13.1927 2.80722C13.1881 2.80258 13.1818 2.79995 13.1752 2.7999H7.82484C7.81827 2.79995 7.81199 2.80258 7.80735 2.80722C7.8027 2.81187 7.80007 2.81815 7.80002 2.82471V3.9999H7.40002V2.82471C7.40016 2.71209 7.44496 2.60411 7.5246 2.52447C7.60423 2.44483 7.71221 2.40003 7.82484 2.3999H13.1752C13.2878 2.40003 13.3958 2.44483 13.4755 2.52447C13.5551 2.60411 13.5999 2.71209 13.6 2.82471Z" fill="white"/>
<defs>
<linearGradient id="paint0_linear_226_533" x1="0" y1="1600" x2="1600" y2="0" gradientUnits="userSpaceOnUse">
<stop stop-color="#C8511B"/>
<stop offset="1" stop-color="#FF9900"/>
</linearGradient>
</defs>
</svg>
