<svg width="16" height="16" viewBox="0 0 16 16" fill="none" xmlns="http://www.w3.org/2000/svg">
<path d="M0 0H16V16H0V0Z" fill="url(#paint0_linear_240_554)"/>
<path d="M11.0243 10.4245C11.0243 10.0937 10.7551 9.82453 10.4243 9.82453C10.0935 9.82453 9.82428 10.0937 9.82428 10.4245C9.82428 10.7553 10.0935 11.0245 10.4243 11.0245C10.7551 11.0245 11.0243 10.7553 11.0243 10.4245ZM11.4243 10.4245C11.4243 10.9759 10.9757 11.4245 10.4243 11.4245C9.8729 11.4245 9.42428 10.9759 9.42428 10.4245C9.42428 9.87309 9.8729 9.42453 10.4243 9.42453C10.9757 9.42453 11.4243 9.87309 11.4243 10.4245ZM6.07828 7.53828C6.07828 7.20753 5.80909 6.93828 5.47828 6.93828C5.14728 6.93828 4.87828 7.20753 4.87828 7.53828C4.87828 7.86909 5.14728 8.13828 5.47828 8.13828C5.80909 8.13828 6.07828 7.86909 6.07828 7.53828ZM6.47828 7.53828C6.47828 8.08971 6.02953 8.53828 5.47828 8.53828C4.9269 8.53828 4.47828 8.08971 4.47828 7.53828C4.47828 6.9869 4.9269 6.53828 5.47828 6.53828C6.02953 6.53828 6.47828 6.9869 6.47828 7.53828ZM7.9459 4.40128C7.9459 4.73209 8.21509 5.00128 8.5459 5.00128C8.8769 5.00128 9.1459 4.73209 9.1459 4.40128C9.1459 4.07028 8.8769 3.80128 8.5459 3.80128C8.21509 3.80128 7.9459 4.07028 7.9459 4.40128ZM7.5459 4.40128C7.5459 3.8499 7.99465 3.40128 8.5459 3.40128C9.09728 3.40128 9.5459 3.8499 9.5459 4.40128C9.5459 4.95271 9.09728 5.40128 8.5459 5.40128C7.99465 5.40128 7.5459 4.95271 7.5459 4.40128ZM13.1999 7.9999C13.1999 6.14528 12.2055 4.42953 10.6023 3.50171C10.3149 3.55971 10.0369 3.63909 9.69009 3.76453L9.55409 3.38828C9.71864 3.32858 9.88506 3.27418 10.0531 3.22515C9.40477 2.94512 8.70611 2.80042 7.9999 2.7999C7.66209 2.7999 7.32971 2.8349 7.0049 2.89828C7.24009 3.0359 7.44865 3.17309 7.65128 3.32671L7.40953 3.64528C7.1239 3.4289 6.8279 3.24553 6.43928 3.0419C4.47553 3.65953 3.06115 5.39153 2.83653 7.42553C3.24828 7.34209 3.64371 7.29671 4.08271 7.2859L4.09253 7.68571C3.63253 7.69709 3.23728 7.7459 2.80528 7.8409C2.80353 7.8939 2.7999 7.94753 2.7999 7.9999C2.7999 9.73153 3.65653 11.3271 5.06528 12.2893C4.81465 11.5431 4.6899 10.8379 4.6899 10.1491C4.6899 9.75628 4.75753 9.43371 4.8289 9.09228C4.84553 9.01328 4.86228 8.9329 4.87871 8.84953L5.27128 8.9269C5.25453 9.01171 5.23728 9.0939 5.22053 9.17453C5.15053 9.5089 5.0899 9.79765 5.0899 10.1491C5.0899 10.9307 5.26153 11.7389 5.61071 12.6165C6.35446 13.0027 7.15771 13.1999 7.9999 13.1999C8.55115 13.1999 9.08909 13.1119 9.60228 12.9427C9.80371 12.5453 9.95309 12.1703 10.0779 11.7397L10.4621 11.8511C10.3749 12.1526 10.2679 12.4479 10.1417 12.7353C10.4645 12.5901 10.7699 12.4105 11.0565 12.2009C10.9875 12.0317 10.9135 11.8635 10.8317 11.6997L11.1895 11.5207C11.2591 11.6599 11.3229 11.8023 11.3839 11.9455C12.5409 10.9549 13.1999 9.5319 13.1999 7.9999ZM13.5999 7.9999C13.5999 9.74528 12.8067 11.3597 11.4241 12.4297C11.0817 12.6957 10.7103 12.9165 10.3177 13.0943C10.1511 13.1699 9.98146 13.2399 9.80709 13.2987C9.23109 13.4985 8.62253 13.5999 7.9999 13.5999C7.0799 13.5999 6.16628 13.3707 5.35753 12.9371C3.53328 11.9612 2.3999 10.0693 2.3999 7.9999C2.3999 7.86271 2.40353 7.75828 2.41171 7.66171C2.5479 5.3249 4.15109 3.30234 6.40009 2.63309C6.91228 2.47853 7.4509 2.3999 7.9999 2.3999C8.96153 2.3999 9.90772 2.64753 10.7367 3.11571C12.5025 4.1049 13.5999 5.97671 13.5999 7.9999ZM7.46271 5.09253L7.1999 4.79109C6.75153 5.18234 6.40271 5.59771 5.99528 6.22509L6.3309 6.4429C6.71653 5.84871 7.04453 5.45753 7.46271 5.09253ZM6.8549 7.68528L6.7249 8.06353C7.64353 8.3789 8.4449 8.88209 9.24672 9.64709L9.5229 9.35772C8.67771 8.55147 7.8299 8.02009 6.8549 7.68528ZM9.52909 5.33353C10.2795 6.4779 10.7021 7.73415 10.7849 9.06753L10.3857 9.09228C10.3071 7.82915 9.90653 6.63828 9.1949 5.5529L9.52909 5.33353Z" fill="white"/>
<defs>
<linearGradient id="paint0_linear_240_554" x1="0" y1="1600" x2="1600" y2="0" gradientUnits="userSpaceOnUse">
<stop stop-color="#4D27A8"/>
<stop offset="1" stop-color="#A166FF"/>
</linearGradient>
</defs>
</svg>
