<svg width="16" height="16" viewBox="0 0 16 16" fill="none" xmlns="http://www.w3.org/2000/svg">
<path d="M0 0H16V16H0V0Z" fill="url(#paint0_linear_240_558)"/>
<path d="M2.87915 8.1999H2.3999V7.7999H2.87971C2.91971 6.78809 3.24771 5.82553 3.84153 5.0049L4.16571 5.23953C3.62153 5.99128 3.31953 6.87303 3.27971 7.7999H3.7999V8.1999H3.27915C3.31634 9.13228 3.61853 10.0193 4.16571 10.7751L3.84153 11.0097C3.24471 10.1851 2.91653 9.2169 2.87915 8.1999ZM11.0019 12.1655C10.1795 12.7609 9.21434 13.0889 8.1999 13.1277V13.5999H7.7999V13.1277C6.78553 13.0889 5.8199 12.7609 4.99753 12.1655L5.2319 11.8415C5.9859 12.3873 6.87034 12.6893 7.7999 12.7277V12.1999H8.1999V12.7277C9.12953 12.6891 10.0137 12.3871 10.7675 11.8415L11.0019 12.1655ZM4.99753 3.84909C5.8199 3.25371 6.78553 2.92571 7.7999 2.88709V2.3999H8.1999V2.88709C9.21428 2.92571 10.1795 3.2539 11.0019 3.84909L10.7675 4.17309C10.0138 3.62747 9.12953 3.32553 8.1999 3.28709V3.7999H7.7999V3.28709C6.87034 3.32528 5.9859 3.62753 5.2319 4.17309L4.99753 3.84909ZM13.5999 7.7999V8.1999H13.1203C13.0832 9.2169 12.7547 10.1851 12.1582 11.0097L11.8338 10.7751C12.3809 10.0193 12.6833 9.13228 12.7203 8.1999H12.1999V7.7999H12.7197C12.6799 6.87309 12.3779 5.99128 11.8337 5.23953L12.1581 5.0049C12.7517 5.82553 13.0797 6.78809 13.1197 7.7999H13.5999ZM10.9943 4.7299L12.5623 3.1619L12.8452 3.44471L11.2772 5.01271L10.9943 4.7299ZM5.00521 11.2847L3.43721 12.8527L3.1544 12.5699L4.7224 11.0019L5.00521 11.2847ZM5.4504 5.73328L2.48234 2.76528L2.76515 2.48253L5.73328 5.45053L5.4504 5.73328ZM10.5414 10.2585L13.5172 13.2345L13.2344 13.5173L10.2584 10.5415L10.5414 10.2585ZM6.33278 8.1469C6.34778 8.12028 6.36403 8.09353 6.38096 8.06671C6.71722 7.53853 6.62078 6.81771 6.51396 6.38234C6.80221 6.57171 7.06196 6.96309 7.15059 7.12753C7.1884 7.19709 7.26184 7.23928 7.3424 7.23209C7.38103 7.22911 7.41796 7.21497 7.44871 7.19139C7.47945 7.16781 7.50269 7.13581 7.51559 7.09928C7.8134 6.25328 7.66197 5.61728 7.45197 5.20509C7.70659 5.35328 7.90384 5.56653 8.0344 5.83828C8.31759 6.42671 8.25459 7.23209 7.86959 7.9399C7.34378 8.90709 7.44921 9.92115 7.56878 10.4667C7.26859 10.3373 7.0014 10.1911 6.77078 10.0303C6.1654 9.60828 5.97278 8.78128 6.33278 8.1469ZM9.01878 8.07953C9.01239 8.11946 9.01824 8.16039 9.03555 8.19693C9.05286 8.23348 9.08083 8.26393 9.11578 8.28428C9.15079 8.30453 9.19111 8.31372 9.23144 8.31066C9.27177 8.30759 9.31023 8.2924 9.34178 8.26709C9.35803 8.25409 9.68597 7.98334 9.84478 7.32834C10.0362 7.60671 10.2364 8.16853 9.96996 9.20053C9.7064 10.2215 8.45597 10.5087 8.00978 10.5793C7.90197 10.1927 7.6834 9.11971 8.22122 8.1309C8.60278 7.4289 8.70396 6.63509 8.51278 5.98009C8.87478 6.40528 9.18022 7.07446 9.01878 8.07946M5.9844 7.9499C5.52396 8.7619 5.76878 9.81972 6.54196 10.3585C6.89196 10.6025 7.31596 10.8143 7.80196 10.9881C7.82426 10.996 7.84674 10.9999 7.8694 10.9999C7.87359 10.9999 7.87722 10.9977 7.88122 10.9975L7.8814 10.9993C7.9664 10.9927 9.96515 10.8191 10.3572 9.30053C10.8616 7.34728 9.8514 6.7679 9.80822 6.74409C9.7793 6.72822 9.7469 6.71975 9.71391 6.71944C9.68093 6.71913 9.64838 6.72699 9.61917 6.74232C9.58996 6.75765 9.56499 6.77997 9.54651 6.80729C9.52802 6.83461 9.51658 6.86609 9.51322 6.8989C9.50079 7.02072 9.47966 7.14148 9.44997 7.26028C9.31159 5.72671 8.09578 5.10271 7.84997 4.99171C7.59797 4.79871 7.29159 4.66609 6.9364 4.60309C6.89308 4.59531 6.84841 4.60213 6.80939 4.62248C6.77036 4.64283 6.7392 4.67556 6.72078 4.71553C6.7022 4.75547 6.69729 4.80042 6.7068 4.84344C6.71631 4.88645 6.73972 4.92514 6.7734 4.95353C6.8034 4.9789 7.42659 5.51928 7.24878 6.54771C7.01659 6.24309 6.64696 5.8759 6.21221 5.8759C6.17974 5.87596 6.14776 5.88391 6.11904 5.89907C6.09032 5.91424 6.06572 5.93615 6.04735 5.96294C6.02899 5.98972 6.01741 6.02057 6.01362 6.05283C6.00983 6.08508 6.01394 6.11778 6.02559 6.14809C6.02996 6.1589 6.43759 7.23309 6.0434 7.85209C6.02299 7.88424 6.00332 7.91685 5.9844 7.9499Z" fill="white"/>
<defs>
<linearGradient id="paint0_linear_240_558" x1="0" y1="1600" x2="1600" y2="0" gradientUnits="userSpaceOnUse">
<stop stop-color="#BD0816"/>
<stop offset="1" stop-color="#FF5252"/>
</linearGradient>
</defs>
</svg>
