<svg width="20" height="20" viewBox="0 0 20 20" fill="none" xmlns="http://www.w3.org/2000/svg">
<g clip-path="url(#clip0_4635_2141)">
<path fill-rule="evenodd" clip-rule="evenodd" d="M14.0004 13.4983C14.0004 13.2221 14.2243 12.9983 14.5004 12.9983H17.5171C18.3455 12.9983 19.0171 13.6699 19.0171 14.4983V18.5039C19.0171 19.3323 18.3455 20.0039 17.5171 20.0039H2.50488C1.67646 20.0039 1.00488 19.3323 1.00488 18.5039V14.4998C1.00488 13.6713 1.67646 12.9998 2.50488 12.9998H5.49849C5.77463 12.9998 5.99849 13.2236 5.99849 13.4998C5.99849 13.7759 5.77463 13.9998 5.49849 13.9998H2.50488C2.22874 13.9998 2.00488 14.2236 2.00488 14.4998V18.5039C2.00488 18.78 2.22874 19.0039 2.50488 19.0039H17.5171C17.7932 19.0039 18.0171 18.78 18.0171 18.5039V14.4983C18.0171 14.2221 17.7932 13.9983 17.5171 13.9983H14.5004C14.2243 13.9983 14.0004 13.7744 14.0004 13.4983Z" fill="#656C87"/>
<path fill-rule="evenodd" clip-rule="evenodd" d="M9.0166 0.497253C9.0166 0.221111 9.24046 -0.00274658 9.5166 -0.00274658H12.5273C12.8035 -0.00274658 13.0273 0.221111 13.0273 0.497253V3.50439C13.0273 3.78054 12.8035 4.00439 12.5273 4.00439H9.5166C9.24046 4.00439 9.0166 3.78054 9.0166 3.50439V0.497253ZM10.0166 0.997253V3.00439H12.0273V0.997253H10.0166Z" fill="#656C87"/>
<path fill-rule="evenodd" clip-rule="evenodd" d="M8.02734 12.5039C8.02734 12.2278 8.2512 12.0039 8.52734 12.0039H12.5186C12.7947 12.0039 13.0186 12.2278 13.0186 12.5039V16.5012C13.0186 16.7774 12.7947 17.0012 12.5186 17.0012H8.52734C8.2512 17.0012 8.02734 16.7774 8.02734 16.5012V12.5039ZM9.02734 13.0039V16.0012H12.0186V13.0039H9.02734Z" fill="#656C87"/>
<path fill-rule="evenodd" clip-rule="evenodd" d="M5.53037 17.0009L3.51621 17.0013C3.24007 17.0014 3.01617 16.7776 3.01611 16.5014C3.01606 16.2253 3.23987 16.0014 3.51602 16.0013L5.53018 16.0009C5.80632 16.0009 6.03022 16.2247 6.03027 16.5008C6.03033 16.777 5.80651 17.0009 5.53037 17.0009Z" fill="#656C87"/>
<path fill-rule="evenodd" clip-rule="evenodd" d="M15.0242 6.02917C13.9214 6.02917 13.0275 6.92316 13.0275 8.02594C13.0275 9.12872 13.9214 10.0227 15.0242 10.0227C16.127 10.0227 17.021 9.12872 17.021 8.02594C17.021 6.92316 16.127 6.02917 15.0242 6.02917ZM12.0275 8.02594C12.0275 6.37087 13.3692 5.02917 15.0242 5.02917C16.6793 5.02917 18.021 6.37087 18.021 8.02594C18.021 9.68101 16.6793 11.0227 15.0242 11.0227C13.3692 11.0227 12.0275 9.68101 12.0275 8.02594Z" fill="#656C87"/>
<path fill-rule="evenodd" clip-rule="evenodd" d="M5.19142 4.16702C5.38669 3.97175 5.70327 3.97175 5.89853 4.16702L8.89855 7.16704C9.09382 7.3623 9.09382 7.67888 8.89855 7.87415L5.89642 10.8763C5.70116 11.0715 5.38458 11.0715 5.18932 10.8763L2.18929 7.87625C1.99403 7.68099 1.99403 7.36441 2.18929 7.16915L5.19142 4.16702ZM3.24995 7.5227L5.54287 9.81562L7.83789 7.52059L5.54498 5.22768L3.24995 7.5227Z" fill="#656C87"/>
</g>
<defs>
<clipPath id="clip0_4635_2141">
<rect width="20" height="20" fill="white"/>
</clipPath>
</defs>
</svg>
